<?xml version='1.0' encoding='utf-8'?>
<svg xmlns="http://www.w3.org/2000/svg" enable-background="new 0 0 48 46.55" version="1.1" viewBox="0 0 48 46.55">
<g clip-rule="evenodd" fill-rule="evenodd">
		<linearGradient id="j" x1="-50.831" x2="-43.33" y1="-35.878" y2="-35.878" gradientTransform="matrix(-.9965 -.0833 .0833 -.9965 -.00040078 0)" gradientUnits="userSpaceOnUse">
		<stop stop-color="#97E5C4" offset="0"/>
		<stop stop-color="#4F8966" offset="1"/>
	</linearGradient>
	<path d="m37.5 41.2l0.05-0.2 0.2-0.1c-0.1 0.067-0.184 0.166-0.25 0.3zm-0.1 0.3h0.05l0.05-0.1 0.9-0.9c1-0.967 1.75-1.8 2.25-2.5 0.666-0.934 1.25-1.866 1.75-2.8l0.149 0.149c0.367 0.4 0.967 1.167 1.8 2.301 0.767 1.066 1.25 1.767 1.45 2.1 0.2 0.467-0.149 1.184-1.05 2.15l2.4-1.301-4.45 2.7c-0.367 0.2-1.017 0.316-1.95 0.351h-0.6l0.05-0.101-0.101 0.101h-0.648l-2.1-2.1 0.05-0.05z" fill="url(#j)"/>
	<path d="m47.15 40.6l-2.4 1.301c0.9-0.967 1.25-1.684 1.05-2.15-0.2-0.333-0.684-1.033-1.45-2.1-0.833-1.134-1.433-1.9-1.8-2.301l-0.149-0.149c-0.334-0.367-0.717-0.9-1.15-1.601l-0.5-0.899-0.15-0.2 2.101 2.15c1.5 1.6 2.483 2.75 2.95 3.449 0.598 0.867 1.098 1.7 1.498 2.5z" fill="#F3F9FF"/>
	<path d="m42.4 35.2c-0.5 0.934-1.084 1.866-1.75 2.8-0.5 0.7-1.25 1.533-2.25 2.5l-0.9 0.9-0.1 0.1-0.051 0.05-0.3 0.25c0.066-0.1 0.15-0.2 0.25-0.3 0.066-0.1 0.134-0.2 0.2-0.3 0.066-0.134 0.15-0.233 0.25-0.3 2.167-3.067 3.316-4.801 3.45-5.2l0.2-0.7c-0.9-1.4-1.733-2.233-2.5-2.5-0.067-0.033-0.134-0.066-0.2-0.1l0.3-0.95 0.05-0.25 0.101-0.05 1.6 1.55 0.5 0.899c0.434 0.701 0.816 1.234 1.15 1.601z" fill="#E5ECFC"/>
		<linearGradient id="k" x1="37.812" x2="43.312" y1="36.049" y2="36.049" gradientTransform="matrix(.9998 .0182 -.0182 .9998 -9.5114e-5 -.0002597)" gradientUnits="userSpaceOnUse">
		<stop stop-color="#97E5C4" offset="0"/>
		<stop stop-color="#4F8966" offset="1"/>
	</linearGradient>
	<path d="m37.75 40.9l-0.2 0.1 0.75-5.5 0.601-3c0.767 0.267 1.6 1.1 2.5 2.5l-0.2 0.7c-0.135 0.4-1.284 2.133-3.451 5.2z" fill="url(#k)"/>
	<path d="m15.4 46.1c-0.6-0.333-1.1-0.633-1.5-0.899l-0.35-0.25c-0.3-0.233-0.533-0.434-0.7-0.601l1.25 0.601c1 0.399 1.883 0.633 2.65 0.7 0.933 0.133 3.783 0.333 8.55 0.6 4.733 0.267 7.601 0.4 8.601 0.4 0.633 0.033 1.25 0.066 1.85 0.1 0.333 0 0.65-0.066 0.95-0.2 0.333-0.166 0.95-0.649 1.85-1.45 0.467-0.699 0.767-1.183 0.9-1.449h0.649l0.101-0.101-0.05 0.101h0.6c0.934-0.034 1.583-0.15 1.95-0.351l4.45-2.7-3.7 3.9c-0.767 0.866-1.3 1.467-1.601 1.8-0.533 0.566-0.866 0.867-1 0.9-1.399 0.2-2.383 0.3-2.949 0.3h-0.15l-0.05 0.05-8.65-0.5h-0.751l-12.9-0.951z" fill="#3C6A50"/>
		<linearGradient id="l" x1="9.4131" x2="32.367" y1="34.084" y2="34.084" gradientTransform="matrix(.9998 .0174 -.0174 .9998 -.00022106 -.00030012)" gradientUnits="userSpaceOnUse">
		<stop stop-color="#C4F0DE" offset="0"/>
		<stop stop-color="#AFEBD2" offset="1"/>
	</linearGradient>
	<path d="m9.15 31.4v-0.05l0.95 0.9h0.2l2.05 1.7c1.9 1.5 3.383 2.6 4.45 3.3h-1.75c-1.2-0.233-2.083-0.434-2.65-0.6-0.7-0.267-1.217-0.434-1.55-0.5-0.667-0.167-1.1-0.301-1.3-0.4-0.167-0.1-0.267-0.217-0.3-0.35-0.033-0.034-0.05-0.216-0.05-0.55l0.05-3.25-0.1-0.2z" fill="url(#l)"/>
	<path d="m15.05 37.25c0.3 0.033 0.633 0.083 1 0.15-0.2 0.199-0.8 0.216-1.8 0.05l-1.7-0.2c-0.233-0.033-0.75-0.167-1.55-0.4-0.667-0.199-1.183-0.267-1.55-0.199-0.067 0.533-0.1 1.8-0.1 3.8-0.067-0.167-0.233-0.434-0.5-0.8-0.267-0.301-0.434-0.601-0.5-0.9-0.133-0.566-0.133-1.283 0-2.15 0.066-0.566 0.1-1.433 0.1-2.6 0.1-0.5 0.183-0.934 0.25-1.3l0.25-1.101-0.15 0.15v-0.25l0.25-0.05 0.1-0.05 0.1 0.199-0.05 3.251c0 0.334 0.017 0.517 0.05 0.551 0.033 0.133 0.133 0.25 0.3 0.35 0.2 0.1 0.633 0.233 1.3 0.4 0.333 0.066 0.85 0.233 1.55 0.5 0.567 0.165 1.45 0.366 2.65 0.599z" fill="#E4FAFF"/>
		<linearGradient id="m" x1="9.7446" x2="39.349" y1="36.835" y2="36.835" gradientTransform="matrix(.9998 .0177 -.0177 .9998 6.2823e-5 -.00030701)" gradientUnits="userSpaceOnUse">
		<stop stop-color="#B8EFDB" offset="0"/>
		<stop stop-color="#8CDBB5" offset="1"/>
	</linearGradient>
	<path d="m37.45 39.9l0.85-4.4-0.75 5.5-0.05 0.2c-0.066 0.1-0.134 0.2-0.2 0.3l-2.8 0.25c0.2-0.033 0.45-0.083 0.75-0.15 0.333-0.1 0.884-0.149 1.65-0.149 0.366-0.101 0.566-0.351 0.6-0.75-0.033-0.335-0.05-0.601-0.05-0.801zm0.05 1.5l-0.05 0.1h-0.05l0.1-0.1zm0.85-8.45l-0.15 1.55c-0.033 0.533-0.267 1.017-0.7 1.45-0.4 0.399-0.833 0.649-1.3 0.75-0.367 0.1-0.917 0.149-1.65 0.149-1.066-0.033-2.017-0.066-2.85-0.1h-8.15c1.834 0.033 4.233 0.2 7.2 0.5 0.066 0 0.134 0.017 0.2 0.05l-5.45-0.25c-2.167 0-3.633-0.066-4.4-0.2-0.7-0.1-1.733-0.183-3.1-0.25l0.85 1.2c-0.067 0.267 0.066 0.434 0.4 0.5h0.8c0.367 0.066 0.9 0.233 1.6 0.5 0.434 0.101 1.1 0.233 2 0.4 0.367 0.133 0.85 0.416 1.45 0.85l1.95 0.7c0.167 0.066 0.617 0.267 1.351 0.6 0.566 0.233 1.033 0.384 1.399 0.45 0.5 0.134 1.334 0.184 2.5 0.15l-2.2 0.2c-0.666-0.067-1.5-0.217-2.5-0.45-0.366-0.101-0.767-0.217-1.199-0.351-3.067-0.866-6.05-2.1-8.95-3.699-0.2-0.101-0.417-0.233-0.65-0.4-1.066-0.7-2.55-1.8-4.45-3.3l-2.05-1.7h0.1l0.25 0.05h1.1c0.767 0 1.883 0.066 3.35 0.2 8.033 0 13.417 0.167 16.15 0.5l7.099-0.049z" fill="url(#m)"/>
	<path d="m39 31.45l-0.6 0.95-0.051 0.55-7.099 0.05c-2.733-0.333-8.117-0.5-16.15-0.5-1.467-0.134-2.583-0.2-3.35-0.2h-1.1l-0.25-0.05h-0.3l-0.95-0.9 7.95-0.1c1.9 0.033 9.25 0 22.05-0.1l-0.1 0.05-0.05 0.25z" fill="#D7FAE5"/>
	<path d="m5.3 34.3l3.5-2.55 0.15-0.15-0.25 1.1c-0.7 0.3-1.65 0.883-2.85 1.75l-1.65 1.25-1.65 2.9 0.75-3.15 1.25-0.601 0.75-0.549z" fill="#F7FDFF"/>
		<linearGradient id="n" x1="3.2637" x2="17.316" y1="35.857" y2="35.857" gradientTransform="matrix(.9998 .0178 -.0178 .9998 -.00019127 -2.0921e-5)" gradientUnits="userSpaceOnUse">
		<stop stop-color="#C4F0DE" offset="0"/>
		<stop stop-color="#AFEBD2" offset="1"/>
	</linearGradient>
	<path d="m9.05 40.7c-1.4-0.134-2.9-0.517-4.5-1.15l-0.8-0.399-1.2-0.551 1.65-2.9 1.65-1.25c1.2-0.867 2.15-1.45 2.85-1.75-0.067 0.366-0.15 0.8-0.25 1.3 0 1.167-0.034 2.033-0.1 2.6-0.133 0.867-0.133 1.584 0 2.15 0.066 0.3 0.233 0.6 0.5 0.9 0.033 0.367 0.1 0.716 0.2 1.05zm-0.25-8.95l-3.5 2.55c0.034-0.033 0.083-0.083 0.15-0.149 0.7-0.667 1.816-1.517 3.35-2.551v0.15zm0.35-0.4v0.05l-0.1 0.05c0.033-0.033 0.067-0.066 0.1-0.1z" fill="url(#n)"/>
		<linearGradient id="o" x1="-12.96" x2="-1.8097" y1="42.943" y2="42.943" gradientTransform="matrix(.8385 -.5448 .5448 .8385 .00013065 .00015211)" gradientUnits="userSpaceOnUse">
		<stop stop-color="#C4F0DE" offset="0"/>
		<stop stop-color="#AFEBD2" offset="1"/>
	</linearGradient>
	<path d="m27.6 41.7c-0.633-0.066-1.316-0.117-2.05-0.15-3.966-0.267-6.65-0.366-8.05-0.3-1.8 0.033-3.75-0.05-5.85-0.25l-2.6-0.3c-0.1-0.334-0.167-0.684-0.2-1.05 0.267 0.366 0.433 0.633 0.5 0.8 0-2 0.033-3.267 0.1-3.8 0.367-0.067 0.883 0 1.55 0.199 0.8 0.233 1.317 0.367 1.55 0.4l1.7 0.2c1 0.166 1.6 0.149 1.8-0.05-0.367-0.067-0.7-0.117-1-0.15h1.75c0.233 0.167 0.45 0.3 0.65 0.4 2.9 1.6 5.883 2.833 8.95 3.699 0.433 0.135 0.833 0.252 1.2 0.352z" fill="url(#o)"/>
		<linearGradient id="p" x1="9.7485" x2="41.703" y1="43.333" y2="43.333" gradientTransform="matrix(.9999 .0172 -.0172 .9999 -6.5222e-5 .00035557)" gradientUnits="userSpaceOnUse">
		<stop stop-color="#97E5C4" offset="0"/>
		<stop stop-color="#4F8966" offset="1"/>
	</linearGradient>
	<path d="m32.3 41.95c0.4 0 0.867-0.017 1.4-0.05 0.033 0 0.3-0.051 0.8-0.15l2.8-0.25c-0.1 0.1-0.184 0.2-0.25 0.3l0.3-0.25 2.101 2.101c-0.134 0.267-0.434 0.75-0.9 1.449-0.899 0.801-1.517 1.284-1.85 1.45-0.3 0.134-0.617 0.2-0.95 0.2-0.6-0.033-1.217-0.066-1.85-0.1-1 0-3.867-0.134-8.601-0.4-4.767-0.267-7.617-0.467-8.55-0.6-0.767-0.067-1.65-0.301-2.65-0.7l-1.25-0.601c0.167 0.167 0.4 0.367 0.7 0.601-0.566-0.367-1.117-0.75-1.65-1.15-0.667-0.533-1.267-1.184-1.8-1.95l-0.65-0.95c0.233 0.466 0.533 0.949 0.9 1.449l-1.3-1.649 2.6 0.3c2.1 0.2 4.05 0.283 5.85 0.25 1.4-0.066 4.083 0.033 8.05 0.3 0.733 0.033 1.417 0.084 2.05 0.15 1 0.233 1.834 0.383 2.5 0.45l2.2-0.2z" fill="url(#p)"/>
	<path d="m13.55 44.95l0.35 0.25c0.4 0.267 0.9 0.566 1.5 0.899l-1.5-0.149-0.05-0.05c-1.4-1.101-2.5-2.184-3.3-3.25l-0.2-0.301c-0.367-0.5-0.667-0.983-0.9-1.449l0.65 0.949c0.533 0.767 1.133 1.417 1.8 1.95 0.533 0.401 1.083 0.784 1.65 1.151z" fill="#BDECF8"/>
		<linearGradient id="q" x1="3.3066" x2="15.634" y1="42.144" y2="42.144" gradientTransform="matrix(.9998 .0183 -.0183 .9998 -5.2303e-6 .00018786)" gradientUnits="userSpaceOnUse">
		<stop stop-color="#97E5C4" offset="0"/>
		<stop stop-color="#4F8966" offset="1"/>
	</linearGradient>
	<path d="m9.05 40.7l1.3 1.649 0.2 0.301c0.8 1.066 1.9 2.149 3.3 3.25l-2.5-0.301c-0.133-0.033-0.917-0.432-2.35-1.199-1.5-0.767-2.433-1.217-2.8-1.351-0.7-0.233-1.9-1.684-3.6-4.35 0.367 0.166 0.75 0.316 1.15 0.45l0.8 0.399c1.6 0.636 3.1 1.018 4.5 1.152z" fill="url(#q)"/>
		<linearGradient id="r" x1="21.857" x2="44.107" y1="38.074" y2="38.074" gradientTransform="matrix(.9989 .0472 -.0472 .9989 -5.7548e-5 -.00017515)" gradientUnits="userSpaceOnUse">
		<stop stop-color="#85E0BA" offset="0"/>
		<stop stop-color="#467A5B" offset="1"/>
	</linearGradient>
	<path d="m34.5 41.75c-0.5 0.1-0.767 0.15-0.8 0.15-0.533 0.033-1 0.05-1.4 0.05-1.166 0.033-2-0.017-2.5-0.15-0.366-0.066-0.833-0.217-1.399-0.45-0.733-0.333-1.184-0.533-1.351-0.6l-1.95-0.7c-0.6-0.434-1.083-0.717-1.45-0.85-0.9-0.167-1.566-0.3-2-0.4-0.7-0.267-1.233-0.434-1.6-0.5h-0.8c-0.333-0.066-0.467-0.233-0.4-0.5l-0.85-1.2c1.367 0.067 2.4 0.15 3.1 0.25 0.767 0.134 2.233 0.2 4.4 0.2l5.45 0.25c3.899 0.367 5.967 0.717 6.2 1.05 0.267 0.4 0.3 1.267 0.1 2.601l0.2-1.05c0 0.199 0.017 0.466 0.05 0.8-0.033 0.399-0.233 0.649-0.6 0.75-0.767 0-1.317 0.05-1.65 0.149-0.3 0.067-0.55 0.117-0.75 0.15z" fill="url(#r)"/>
	<path d="m38.3 35.5l-0.85 4.4-0.2 1.05c0.2-1.334 0.167-2.2-0.1-2.601-0.233-0.333-2.301-0.683-6.2-1.05-0.066-0.033-0.134-0.05-0.2-0.05-2.967-0.3-5.366-0.467-7.2-0.5h8.15c0.833 0.033 1.783 0.066 2.85 0.1 0.733 0 1.283-0.05 1.65-0.149 0.467-0.101 0.899-0.351 1.3-0.75 0.434-0.434 0.667-0.917 0.7-1.45l0.149-1.55 0.051-0.55 0.6-0.95-0.3 0.95c0.066 0.033 0.133 0.066 0.2 0.1l-0.6 3z" fill="#E7EEFD"/>
</g>
</svg>