<?xml version='1.0' encoding='utf-8'?>
<svg xmlns="http://www.w3.org/2000/svg" enable-background="new 0 0 68.6 42.85" version="1.1" viewBox="0 0 68.6 42.85">
	<g clip-rule="evenodd" fill-rule="evenodd">
			<linearGradient id="n" x1="-318.02" x2="-302.54" y1="761.12" y2="761.12" gradientTransform="matrix(.6209 -.6515 .6515 .6209 -293.35 -634.75)" gradientUnits="userSpaceOnUse">
			<stop stop-color="#AABFDF" offset="0"/>
			<stop stop-color="#7C8EAA" offset="1"/>
		</linearGradient>
		<path d="m9.228 38.131c2.88 0.06 5.58-0.15 8.1-0.63l0.225 0.225c-1.68 1.47-2.67 2.31-2.97 2.52-0.12 0.121-1.05 0.48-2.791 1.08-1.83 0.66-2.91 1.08-3.239 1.26-0.72 0.42-2.851 0.301-6.391-0.359 2.461-1.081 4.816-2.447 7.066-4.096z" fill="url(#n)"/>
			<linearGradient id="o" x1="-318.84" x2="-301.2" y1="752.82" y2="752.82" gradientTransform="matrix(.6202 -.6521 .6521 .6202 -293.35 -634.75)" gradientUnits="userSpaceOnUse">
			<stop stop-color="#DBE5FA" stop-opacity=".6275" offset="0"/>
			<stop stop-color="#B3C8FA" stop-opacity=".6588" offset="1"/>
		</linearGradient>
		<path d="m0.768 33.135l0.27-1.979h0.09c0.45 0.51 1.17 1.259 2.16 2.25 1.831 1.739 3.795 3.254 5.896 4.544l-0.45 0.495c-1.891 1.711-4.111 2.97-6.661 3.78l-2.07-3.016c0.391-0.629 0.57-1.56 0.54-2.789-0.03-0.749 0.044-1.845 0.225-3.285z" fill="url(#o)"/>
			<linearGradient id="p" x1="-679.78" x2="-666.09" y1="458.98" y2="458.98" gradientTransform="matrix(.1496 -.8875 .8875 .1496 -293.35 -634.75)" gradientUnits="userSpaceOnUse">
			<stop stop-color="#E1F5FB" stop-opacity=".9137" offset="0"/>
			<stop stop-color="#B3C8FA" stop-opacity=".7725" offset="1"/>
		</linearGradient>
		<path d="m1.038 31.156c5.79-0.991 8.896-1.546 9.315-1.666 5.939-1.83 10.5-3.84 13.68-6.03l2.97-2.7 0.359 0.135-0.99 1.17c-1.649 1.261-3.135 2.445-4.455 3.555-1.469 1.261-3.464 3.255-5.984 5.985-2.61 2.79-4.62 4.8-6.03 6.029l-0.675 0.586-0.495 0.225c-0.87-0.479-1.831-1.229-2.88-2.25l-4.815-5.039z" fill="url(#p)"/>
			<linearGradient id="q" x1="-679.78" x2="-665.78" y1="461.48" y2="461.48" gradientTransform="matrix(.1495 -.8875 .8875 .1495 -293.35 -634.75)" gradientUnits="userSpaceOnUse">
			<stop stop-color="#E1F5FB" offset="0"/>
			<stop stop-color="#B3C8FA" offset="1"/>
		</linearGradient>
		<path d="m11.163 29.985c1.68-1.8 3.105-3.615 4.275-5.445l10.755-4.364 1.261 0.72c-5.55 4.891-11.43 10.59-17.641 17.1l-1.079 0.45c-0.87-0.479-1.831-1.229-2.88-2.25l-0.991-0.944c2.4-1.591 4.499-3.347 6.3-5.267z" fill="url(#q)"/>
		<path d="m30.917 10.771c-0.18-0.06-0.344 0.36-0.495 1.26-0.15 0.81-0.42 1.035-0.811 0.675l-2.204-2.071c-3.69 2.67-5.985 4.2-6.885 4.59l-8.686 4.635 10.622-11.654c0.39-0.42 0.735-0.9 1.035-1.44l0.315-0.675 7.56 4.5-0.451 0.18z" fill="#F7FDFF"/>
			<linearGradient id="r" x1="-275.88" x2="-268.98" y1="752.95" y2="752.95" gradientTransform="matrix(.6199 -.6525 .6525 .6199 -293.35 -634.75)" gradientUnits="userSpaceOnUse">
			<stop stop-color="#E1F5FB" offset="0"/>
			<stop stop-color="#B3C8FA" offset="1"/>
		</linearGradient>
		<path d="m33.393 10.185c-0.149 2.88-0.3 4.44-0.45 4.68-0.149 0.21-0.779 0.571-1.89 1.081-0.959-1.471-1.859-2.79-2.7-3.96l-4.545-5.896 0.584-0.089 5.041-0.225 1.754 2.025c1.231 1.409 1.965 2.205 2.206 2.384z" fill="url(#r)"/>
			<linearGradient id="s" x1="-310.4" x2="-270.28" y1="762.78" y2="762.78" gradientTransform="matrix(.6205 -.6519 .6519 .6205 -293.35 -634.75)" gradientUnits="userSpaceOnUse">
			<stop stop-color="#A5B7DD" stop-opacity=".7333" offset="0"/>
			<stop stop-color="#667FB7" stop-opacity=".6667" offset="1"/>
		</linearGradient>
		<path d="m35.958 14.506l-0.315 5.984-6.66 6.48c-1.77 1.8-5.58 5.385-11.43 10.755l-1.845 0.675c-0.78 0.271-2.175 0.359-4.185 0.271l-2.79-0.226c2.49-1.98 4.799-4.2 6.929-6.66 0.99-1.17 3.12-3.314 6.39-6.435 3.03-2.91 4.755-4.665 5.175-5.265l3.509-4.545 1.396-1.305 3.826 0.271z" fill="url(#s)"/>
			<linearGradient id="t" x1="-202.04" x2="-194.15" y1="-783.71" y2="-783.71" gradientTransform="matrix(-.8776 .1995 -.1995 -.8776 -293.35 -634.75)" gradientUnits="userSpaceOnUse">
			<stop stop-color="#AABFDF" offset="0"/>
			<stop stop-color="#7C8EAA" offset="1"/>
		</linearGradient>
		<path d="m35.643 20.49c-0.6-2.819-1.005-4.53-1.215-5.13-0.12-0.359-0.195-0.839-0.225-1.44l-0.045-0.81 1.979-4.815 1.62-1.665 0.45 6.029c0.06 0.66 0.149 1.575 0.27 2.746 0.09 0.87 0.09 1.38 0 1.529-1.05 1.471-1.725 2.371-2.024 2.7l-0.81 0.856z" fill="url(#t)"/>
			<linearGradient id="u" x1="210.01" x2="219.44" y1="-772.71" y2="-772.71" gradientTransform="matrix(-.6632 .6084 -.6084 -.6632 -293.35 -634.75)" gradientUnits="userSpaceOnUse">
			<stop stop-color="#E1F5FB" offset="0"/>
			<stop stop-color="#B3C8FA" offset="1"/>
		</linearGradient>
		<path d="m37.758 6.631l-1.125 5.804c-0.18 0.66-0.915 1.636-2.205 2.925l-3.69 0.18c0.24-1.049 0.24-2.354 0-3.915-0.12-0.93-0.375-2.19-0.765-3.78l-0.54-2.07h1.214c0.96 0.03 1.726 0.075 2.295 0.134l4.816 0.722z" fill="url(#u)"/>
			<linearGradient id="v" x1="-310.5" x2="-273.4" y1="753.44" y2="753.44" gradientTransform="matrix(.6204 -.652 .652 .6204 -293.35 -634.75)" gradientUnits="userSpaceOnUse">
			<stop stop-color="#E1F5FB" stop-opacity=".9137" offset="0"/>
			<stop stop-color="#B3C8FA" stop-opacity=".7725" offset="1"/>
		</linearGradient>
		<path d="m6.033 25.846l6.795-7.425c3.66-2.19 5.565-3.36 5.714-3.51 0.121-0.179 2.565-2.265 7.335-6.254l5.22 6.795-5.085 6.57-3.509 2.475c-3.03 1.89-6.315 3.42-9.855 4.59-1.35 0.45-3.69 0.931-7.02 1.44l-4.59 0.631c1.139-1.262 2.805-3.033 4.995-5.312z" fill="url(#v)"/>
			<linearGradient id="l" x1="-302.82" x2="-278.14" y1="756.59" y2="756.59" gradientTransform="matrix(.6203 -.6521 .6521 .6203 -293.35 -634.75)" gradientUnits="userSpaceOnUse">
			<stop stop-color="#CFDDFA" offset="0"/>
			<stop stop-color="#91A9CE" offset="1"/>
		</linearGradient>
		<path d="m12.198 27.825c0.75-0.78 1.605-1.56 2.565-2.34 0.66-0.51 1.831-1.68 3.51-3.51l4.23-4.41c1.2-1.08 2.1-1.935 2.7-2.564 0.569-0.63 1.004-1.11 1.305-1.441 0.54-0.599 1.004-1.064 1.395-1.395 0.3 0.21 0.6 0.495 0.9 0.855 0.18 0.21 0.435 0.525 0.765 0.945 0.18 0.21 0.48 0.48 0.9 0.811 0.3 0.33 0.36 0.675 0.18 1.034-0.15 0.331-0.524 0.826-1.125 1.485-0.21 0.33-0.525 0.84-0.945 1.53-1.201 1.53-2.22 2.595-3.061 3.195-0.569 0.42-1.56 0.915-2.97 1.485-0.811 0.45-1.5 0.795-2.07 1.034-0.84 0.21-1.456 0.405-1.845 0.586-0.481 0.239-1.095 0.705-1.846 1.395-0.36 0.21-0.9 0.51-1.62 0.9-0.119 0.089-0.33 0.3-0.63 0.63-0.3 0.24-0.555 0.24-0.765 0l-1.573-0.225z" fill="url(#l)"/>
		<path d="m23.808 6.09l1.079 1.845-5.579 6.121c-2.521 2.159-6.765 6.525-12.735 13.094-1.14 0.99-2.055 1.86-2.745 2.609-0.21 0.181-0.495 0.481-0.855 0.9l-0.225 0.225-0.27 0.181-1.44 0.091c2.521-2.881 4.515-5.101 5.985-6.661 0.93-0.959 4.005-4.319 9.225-10.08l7.56-8.325z" fill="#F7FDFF"/>
		<path d="m23.808 6.09l6.704 9.091c-0.923-1.19-1.672-1.835-2.25-1.936-0.45-0.09-2.384 1.41-5.804 4.5-2.582 2.336-4.622 4.279-6.121 5.827l6.436-6.997c1.14-1.14 1.89-1.905 2.25-2.295 0.57-0.6 0.945-1.095 1.125-1.485 0.27-0.479 0.39-1.035 0.36-1.665-0.031-0.66-0.24-1.23-0.63-1.71l-1.62-1.755-0.45-1.575zm6.884 9.338c0.053 0.063 0.105 0.131 0.157 0.203-0.051-0.072-0.104-0.14-0.157-0.203z" fill="#F7FDFF"/>
		<path d="m6.303 33.45c0.72-0.39 1.259-0.689 1.62-0.899 0.87-0.541 2.01-1.365 3.42-2.476 0 0.3-0.435 0.81-1.305 1.53l-1.44 1.26c-0.21 0.181-0.72 0.51-1.53 0.99-0.66 0.39-1.125 0.765-1.395 1.125 0.69 0.84 1.725 1.83 3.105 2.97-0.15-0.06-0.51-0.105-1.08-0.135-0.42-0.03-0.779-0.135-1.08-0.314-0.569-0.301-1.185-0.841-1.845-1.62-0.39-0.48-1.065-1.171-2.025-2.07-0.571-0.721-1.005-1.245-1.305-1.575-0.24-0.271-0.42-0.48-0.54-0.63l0.225-0.36 0.225 0.045 2.655 2.565c0.21 0.21 0.359 0.345 0.45 0.404 0.12 0.031 0.3 0.016 0.54-0.045 0.18-0.06 0.615-0.315 1.305-0.765z" fill="#F7FDFF"/>
		<path d="m9.228 38.221l1.259 0.225c1.05 0.12 2.056 0.104 3.016-0.045 1.53-0.239 3.06-0.615 4.59-1.125l-1.305 1.124c-0.78 0.12-1.68 0.195-2.7 0.226-2.01 0.089-3.63-0.045-4.86-0.405z" fill="#ABB6DA"/>
		<path d="m23.808 6.09l5.625-0.314 0.45 1.305c0.33 1.049 0.584 2.04 0.764 2.97 0.3 1.5 0.435 3.465 0.405 5.895-0.24-1.23-0.51-2.505-0.81-3.825-0.54-2.58-0.9-4.005-1.08-4.275l-0.45-0.675c-0.569-0.089-1.2-0.15-1.89-0.18-1.32-0.03-2.175 0.195-2.564 0.675l-2.25 1.935 1.8-3.511z" fill="#F7FDFF"/>
		<path d="m36.048 7.126c-0.42-0.121-1.38-0.255-2.88-0.405-1.53-0.18-2.609-0.255-3.24-0.225-0.57 0.03-1.395-0.06-2.475-0.27l-1.441-0.316 3.421-0.089c2.46-0.03 4.169 0.015 5.129 0.135 1.171 0.179 2.235 0.404 3.195 0.675l-0.721 3.015c-0.118-1.5-0.449-2.34-0.988-2.52z" fill="#F7FDFF"/>
		<path d="m3.828 29.49l-1.666 2.341c-0.6 0.81-1.035 3.074-1.304 6.795l1.214 3.6-2.07-3.016c0.21-0.539 0.36-1.034 0.45-1.484l0.675-6.48 2.701-1.756z" fill="#F7FDFF"/>
			<radialGradient id="m" cx="-282.7" cy="753.56" r="22.804" gradientTransform="matrix(.6207 -.6517 -.3945 -.3757 495.06 116.1)" gradientUnits="userSpaceOnUse">
			<stop stop-color="#fff" offset="0"/>
			<stop stop-color="#fff" stop-opacity="0" offset="1"/>
		</radialGradient>
		<path d="m38.703 12.751c-0.991 4.589-3.451 8.924-7.38 13.005-3.9 4.109-8.115 6.78-12.645 8.01s-8.04 0.66-10.53-1.71-3.225-5.835-2.205-10.396c1.02-4.589 3.48-8.939 7.38-13.05 3.9-4.11 8.115-6.765 12.645-7.965 4.53-1.229 8.025-0.66 10.485 1.71 2.489 2.371 3.239 5.836 2.25 10.396z" fill="url(#m)"/>
	</g>
</svg>