<?xml version='1.0' encoding='utf-8'?>
<svg xmlns="http://www.w3.org/2000/svg" enable-background="new 0 0 1233 1697.551" version="1.1" viewBox="0 0 1233 1697.551">
<style type="text/css">
	.st0{opacity:0.97;enable-background:new    ;}
</style>
<path class="st0" d="m500.24 48.775h5.55c1.572 2.67 1.534 5.768 1.767 8.746 1.203 1.993 3.399 3.249 4.339 5.415-0.241 2.384-1.038 4.76-0.609 7.167 1.662 1.414 4.204 0.812 6.219 1.474 0.113 4.084-1 8.077-0.902 12.16 0.436 0.504 0.88 1.008 1.324 1.519 3.565 0.083 7.287-0.722 10.694 0.714 0.03 2.249 0.075 4.497 0.12 6.753-1.008 0.97-2.008 1.933-3.023 2.895-0.06 2.361-0.075 4.723-0.03 7.084 0.669 0.669 1.339 1.331 2 2.008 5.219-0.513 2.366-2.423 12.025-2.151 0.195 3.467 0.173 6.941 0.015 10.416-0.948 1.023-1.88 2.053-2.798 3.091 0.511 3.948-2.489 6.994-2.692 10.814 4.226-0.203 6.738-4.941 11.168-4.279 2.737-0.316 5.076 1.203 7.242 2.662-0.06 2.331-0.113 4.663-0.113 6.986 0.075-2.113 0.143-4.234 0.391-6.34 1.955 2.106 0.902 5.114 0.639 7.611 0.436-0.496 0.88-0.993 1.324-1.497-0.09-2.166-0.135-4.332-0.098-6.505 0.15 2.888 0.173 5.783 0.293 8.671l-1.271-0.406c-0.06 0.361-0.181 1.098-0.241 1.459-0.158-0.805-0.308-1.609-0.451-2.414-8.51 14.339 0.447 7.584-9.611 19.583 0.015 1.038 0.023 2.083 0.06 3.128 14.91-5.844 8.159-7.893 18.244-8.618 11.789 24.087-18.544 37.015-16.801 48.146 4.941 0.925 7.084-5.437 11.747-5.934 5.896-0.609 9.814-5.904 15.552-7.017 3.392-0.662 6.212-2.692 9.175-4.332 1.339-0.158 3.309-0.79 4.114 0.714 1.081 11.832-1.021 11.231-4.414 16.665-0.274 5.719 0.267 5.248-4.249 8.43-1.001 0.621-11.442 8.284-13.123 10.235 0.045 0.933 0.098 1.873 0.15 2.805-8.371 10.74-4.813 1.105-24.223 21.448-0.06 0.782-0.18 2.339-0.241 3.113 1.677-0.038 3.459 0.045 4.994-0.767 22.715-11.164 3.723-4.056 22.727-8.611 4.926-0.91 8.596-4.994 13.642-5.535 3.49-1.053 6.152 2.647 9.641 2.038 5.791-0.353 12.063-2.076 17.485 0.835 8e-3 0.353 0.015 1.06 0.023 1.414-7.793 7.225-3.435 4.66-5.934 8.919-2.143 1.895-4.941 2.865-7.114 4.715-1.482 1.121-0.76 3.677-2.504 4.565-14.918 9.166-18.729 6.731-25.329 10.468-0.211 1.286-0.256 2.595-0.346 3.888 0.023-1.241 0.053-2.474 0.083-3.708-0.368 0.06-1.113 0.196-1.489 0.256-0.188 1.482 0.714 3.587-0.827 4.505-20.484 12.276-5.965 1.153-26.036 19.824-1.271 0.842-0.963 2.444-1.09 3.738 1.662-0.271 3.55-0.218 4.873-1.451 2.768-2.294 5.738-4.362 8.212-6.986 2.098 8e-3 4.121 0.639 6.212 0.76 6.439-3.127 6.166-7.417 21.305-11.025 2.534 0.15 5.227 1.256 7.641-0.06 17.796-8.406 15.39-4.336 22.185-5.595 3.108-0.581 14-1.543 19.267 1.015-0.455 5.069-6.195 2.433-13.634 12.213-2.219 2.031-5.452 2.745-7.34 5.197-0.451 1.534-0.241 3.174-0.564 4.738-1.512 1.82-3.482 3.279-5.595 4.324-5.532 1.596-4.361-2.258-11.679 4.264 0.203 1.173 0.421 2.369 0.745 3.535-3.024 4.687-18.153 9.751-23.93 12.416-1.147 0.491-24.452 17.412-25.314 18.026-0.038 0.669-0.068 1.339-0.09 2.015 2.58 2.707 6.37 6.941 10.423 4.572 4.661-4.955 4.238-12.699 19.41-17.853 1.963-0.639 2.843 1.827 4.031 2.903 0.03 1.158 0.083 2.309 0.158 3.467 7e-3 -0.669 0.038-2 0.045-2.67 0.331-0.143 0.692-0.165 1.06-0.226-0.128 0.775-0.376 2.339-0.496 3.121 1.632 0.248 3.294 0.083 4.941-0.045 1.211-3.046 3.204-6.031 6.445-7.129 6.054-2.346 12.123-5.603 18.763-5.527 7.616 6.811 7.179-2.972 21.418-2.286 2.602 0.113 4.858 1.858 7.513 1.654 2.88 0.135 5.415-1.617 8.28-1.602 20.227-0.475 17.964-2.291 21.403 3.211-1.91 3.271-4.813 5.866-8.054 7.784-2.399 1.226-3.309 3.903-5.099 5.746-2.444 1.564-5.685 1.527-7.934 3.467-2.391 1.993 1.316 5.708-1.444 7.453-3.542 3.166-8.829 2.361-12.92 4.467-0.03 0.775-0.098 2.316-0.135 3.091 1.03 0.556 2.083 1.121 3.136 1.677-8e-3 0.887 0 1.775 0.015 2.67-0.647 0.436-1.278 0.88-1.91 1.324-3.425 0.352-23.965 4.468-25.975 7.257 0.038 0.459 0.105 1.376 0.143 1.843 1.715 1.399 3.565 2.632 5.227 4.099-3.858 4.798-10.619 4.294-15.733 6.896-9.092 4.512-19.012 6.941-28.262 11.055 0.316 1.173 0.767 2.331 0.955 3.542-12.095 11.223-61.465 25.791-68.819 37.226-15.395 23.069-7.12 12.474-11.378 27.472-1.008 3.211-1.136 6.588-0.948 9.934 8.331-3.171 8.011-28.826 28.171-40.211 2.677-1.241 4.903 1.286 6.798 2.805 1.151 0.015 2.301 0.038 3.459 0.06 7.428-7.032 5.446-10.596 17.229-18.087 1.782-1.053 3.858-2.264 6.009-1.639 1.677 1.497 2.82 3.474 4.106 5.302 1.384 0.038 2.775 0.083 4.181 0.12 12.015-16.012 18.378-12.672 26.005-12.882 3.282 2.793 4.68 8.416 10.551 3.279 18.229-17.919 14.659-8.173 21.914-9.175 5.739-0.212 4.849-9.076 19.515-7.671 2.279 0.511 4.339 1.985 6.776 1.745 2.391 0.15 4.49-1.128 6.753-1.655 4.249-0.436 8.648 0.579 12.792-0.85 4.046-1.294 8.408-0.767 12.311 0.752-0.158 1.451 0.338 3.174-0.684 4.392-4.672 5.513 0.758 3.252-8.28 8.551 0.023 1.895 0.06 3.79 0.098 5.685-2.73 1.444-5.437 2.993-7.626 5.204 0.06 1.76 0.098 3.527 0.135 5.294-3.61 2.256-7.49 4.084-10.807 6.791 0.128 0.917 0.188 1.873 0.489 2.775 1.068 0.887 2.331 1.474 3.557 2.136 0.045 1.188 0.083 2.391 0.135 3.587-4.061 1.594-8.37 2.542-12.627 3.392-7.483 0.338-14.244 3.783-21.298 5.858-0.113 0.632-0.226 1.271-0.323 1.91 8.976 5.279 11.294 1.778 13.702 8.633-0.135 2.497-1.196 4.828-1.797 7.235 1.73-0.173 3.941 0.504 5.174-1.105 4.866-4.956 10.07-10.784 17.349-11.724 3.181-0.639 4.881 2.685 6.091 5.024 12.289 0.539 3.789-3.461 18.493-1.918 4.921 6.505 10.115 0.358 16.003 1.76 6.167 1.316 12.912-1.121 18.628 2.256-1.512 3.918-12.16 10.84-13.161 11.581 0.068 1.489 0.12 2.971 0.173 4.467-3.031 1.654-6.836 1.978-9.152 4.775 0.933 1.278 1.662 2.692 2.053 4.249-4.279 2.151-9.107 3.023-13.213 5.55-1.263 0.549-0.549 2.151-0.737 3.226 2.324 0.414 6.844 0.609 6.024 4.001-3.978 1.458-19.938 3.937-23.456 6.272 0 0.714 0 2.136-8e-3 2.85 7.995 3.938 6.024 2.88 6.979 6.919-10.953 5.075-15.757 3.211-23.84 3.58 0 0-10.332 4.151-28.262 4.58-0.015 0.767-0.045 2.294-0.068 3.061 3.504 1.692 7.573 1.745 11.017 3.557 5.659 5.625 3.266 12.565 3.437 19.312 0.278 4.181-3.422 7.332-3.128 11.544 0.564 0.286 1.677 0.865 2.234 1.151 6.846-5.741-1.395-13.879 15.289-25.69 2.956-2.181 5.445-5.054 8.836-6.588 14.518-6.513 15.243-8.74 19.688-7.693 1.805 2.534 2.354 5.663 3.309 8.566 2.444 1.527 5.362-0.135 7.144-2.008 2.91-2.925 7.039-3.82 10.559-5.738 5.088-2.655 10.678-7.187 15.274-2.294 0.519 1.835 0.985 3.715 2.113 5.317 8.385 1.204 11.19-10.401 23.012-5.467 0.323 1.271 0.677 2.534 1.023 3.813 3.768 1.948 7.618-0.278 10.423-2.805 3.708-0.135 7.806-0.85 11.047 1.474 0.346 0.94 0.692 1.873 1.068 2.828 3.527 1.692 7.212-0.368 10.875-0.173 0.149 2e-3 9.519-0.215 31.059 0.271 0.699 1.504 0.993 3.136 0.993 4.806-12.12 5.353-2.086 6.342-14.755 9.611-0.188 0.654-0.376 1.316-0.534 1.985 1.369 1.143 3.542 2.249 2.422 4.384-2.572 1.248-5.46 1.594-8.084 2.715 0.338 1.97 1.497 4.445 0.233 6.197-5.917 2.837-6.89-0.056-17.44 4.384-0.278 0.902-0.579 1.805-0.767 2.745 1.497 2.098 4.362 2.309 6.317 3.85 0.82 1.166 0.399 2.783 0.098 4.076-8.167 4.811-10.519 2.229-15.229 4.242-3.294 1.369-6.828 1.933-10.295 2.7 0 0.767 0 1.534 0.015 2.309 7.864 4.119 10.704 1.982 9.122 9.07-7.408 1.459-15.056-0.06-22.501 1.113-1.707 0.278-3.429 0.346-5.136 0.399 1.82 0.196 3.632 0.414 5.46 0.669-5.287-0.226-10.596 0.316-15.785 1.241 0.053 0.767 0.143 2.301 0.196 3.068 3.708 1.842 6.926 4.873 8.122 8.942-0.451 0.88-1.128 1.624-1.722 2.414-3.993 0.06-8.716-1.038-11.732 2.324-0.321 0.026-21.764-0.85-21.764-0.85-0.647 1.241-1.263 2.489-1.857 3.76-5.151 0.346-10.341-0.053-15.454 0.857-2.638 2.638 0.781 0.702 11.747 9.679-5.558 2.843-11.972 2.82-18.049 3.083-6.987 0.655 1.151 4.371 0.609 7.43-0.85 0.316-1.692 0.647-2.527 0.978-0.023 0.707-0.068 2.113-0.09 2.82 2.211 1.083 4.347 2.346 6.31 3.85-0.045 0.722-0.09 1.451-0.12 2.181-2.031 1.557-3.971 3.211-5.941 4.828-0.925 2.888-1.166 6.061 0.203 8.867 1.677 0.226 2.452-1.391 3.332-2.497 15.244-22.51 0.239-11.74 19.072-29.999 2.038 0.053 4.106 0.346 6.129-0.06 2.166-1.331 2.925-4.151 5.219-5.355 8.579-4.519 14.307-9.738 18.899-6.422-0.519 3.632-2.835 6.768-3.083 10.468 1.97 1.361 4.076 2.542 6.009 3.986 0 3.745-2.775 6.55-4.542 9.611-0.053 0.82-0.098 1.647-0.128 2.474 2.331-1.248 4.482-2.82 6.272-4.783 0.338-0.09 1.03-0.278 1.376-0.376 2.482-3.091 5.723-5.437 8.415-8.333 12.516-13.077 13.821-9.2 16.349-7.799-0.03 1.218-0.038 2.452-0.038 3.685 0.481 0.519 0.97 1.053 1.459 1.594 9.586-0.867 26.019-24.245 35.293-12.92-0.135 2.249 0.301 4.467 1.579 6.362 6.377-0.985 10.551-6.926 16.785-8.378 3.362-0.504 6.783-0.203 10.168-0.083 0.414 1.85 1.06 3.64 1.955 5.324 2.264-0.03 4.64-0.068 6.543-1.481 4.272-2.925 9.694-1.527 14.522-1.572 0.557 1.549 1.128 3.106 1.737 4.655 3.738-0.03 7.242-1.647 10.987-1.617 18.441-0.21 16.984-0.376 19.982 1.045-0.135 0.722-0.256 1.451-0.369 2.188-7.093 3.197-6.443 6.632-10.468 7.265-2.422 0.895-6.362 0.331-6.934 3.587 1.579 0.391 3.174 0.767 4.783 1.136 0.519 0.534 1.053 1.083 1.594 1.624-6.128 7.322-7.901 2.512-16.65 4.452 0.03 0.857 0.075 1.73 0.12 2.602 1.527 1.188 3.061 2.384 4.572 3.602-0.045 0.782-0.075 1.572-0.098 2.376-6.761 0.256-13.634-0.647-20.298 0.827 0.023 1.196 0.053 2.391 0.098 3.602 4.136 0.955 8.13 2.406 11.799 4.55 3.595 0.557 7.317-1.85 10.859 0.038 0.083 6.018-0.165 4.944 3.414 9.716 1.158-0.038 2.324-0.068 3.512-0.09 2.339-2.655 4.73-5.264 7.017-7.964 0.045-0.556 0.135-1.669 0.173-2.234 4.904-4.888 9.986-5.96 15.056-1.023 1.331-8e-3 2.692 0.068 4.038-0.128 2.662-3.113 5.121-7.708 9.912-7.4 2.557-0.526 4.693 0.902 6.829 2.061 3.632 1.316 6.204-2.715 9.701-2.752 8.864-0.475 10.753-4.754 19.523-2.309-0.128 2.497-0.384 5.001-1.038 7.43-1.617 1.06-3.249 2.113-4.873 3.159 1.181 1.399 1.858 3.377 1.015 5.136-2.459 1.828-5.715 2.534-7.498 5.212 2.158 1.098 4.527 1.647 6.941 1.842-0.053 1.121-0.098 2.256-0.135 3.392-4.971 2.264-9.867 4.738-14.229 8.054 0.675 3.202-1.313 3.552 8.355 3.459 0.902 1.023 1.888 2.121 1.542 3.64-4.418 6.332-32.865 8.973-37.489 13.439 5.023 1.881 17.705 0.608 24.975 0.993 1.933 8e-3 3.474 1.309 5.061 2.249 8e-3 0.775 0.023 2.339 0.03 3.121-3.73 2.64-7.941 4.587-12.401 5.625-5.949 1.346-10.867 5.204-16.567 7.205-2.339 0.902-5.159 1.173-6.603 3.512 13.588 1.499 4.235-2.082 19.335 4.873 0 0.865 8e-3 1.745 0.03 2.625-6.669 5.562-8.204 4.215-23.388 7.107-2.429 0.865-4.437 2.64-6.934 3.324-2.895 0.429-5.881-0.158-8.724 0.594-7.183 2.241-23.101 4.265-26.494 7.016 7.701 2.972 17.672-2.183 30.54 1.211 3.865 0.985 6.926 3.745 10.671 5.054 3.677 1.301 7.325 2.888 10.431 5.294-0.12 0.692-0.369 2.076-0.489 2.768-9.167 3.582-13.637 2.075-19.899 2.459-0.917 0.963-1.797 1.985-2.873 2.783-7.603 0.917-15.169 1.948-22.809 2.542-1.09 0.978-2.151 1.978-3.204 2.993-27.211 0.282-51.048 4.387-52.049 4.655 37.921 7.321 17.338 5.502 35.609 5.761-0.068 1.609-0.135 3.211-0.173 4.828 2.963 0.519 6.129 0.361 8.874 1.797 2.59 1.159 11.63 7.427 14.469-0.97 0.985-2.948 3.783-4.535 6.197-6.189 1.775-1.151 3.113-2.918 5.016-3.865 12.465-1.676 15.442 7.732 19.846 12.762 0.827 0 1.669 0.015 2.519 0.045 0.85-4.384 0.248-8.867 0.436-13.289 5.328-4.378 19.05-13.801 23.922-15.131 1.098 1.181 2.121 2.429 3.354 3.497 1.151 0.143 2.324 0.248 3.512 0.301 3.147-3.241 8.27-17.703 25.261-20.162 4.629 0.871 3.693 0.227 7.49 4.873 7.975-0.286 14.2-11.779 26.299-10.641 2.617 0.511 3.956 3.745 6.783 3.79 5.99 0.386 10.052-8.252 21.403-2.158 0.083 0.451 0.248 1.361 0.331 1.812-0.76-0.376-1.504-0.745-2.241-1.098 0.782 0.466 1.549 0.917 2.361 1.399l-0.602 1.015c3.677-0.068 7.378 0.18 11.055-0.241-3.068-0.677-6.738 0.722-9.431-0.85 2.655-0.256 5.377 0.316 8.039-0.286 2.391-0.526 4.82-0.105 7.182 0.459 0.481 0.496 0.985 0.993 1.497 1.504 10.411-0.277 24.199 2.618 24.359 7.302-1.873 1.775-4.775 0.699-7.099 0.94-0.624 1.113-1.173 2.286-1.978 3.286-4.031 0.842-7.927 2.557-12.13 2.181-0.579 1.038-1.158 2.061-1.722 3.106-4.497-0.707-8.994-1.504-13.559-1.083 0.023 1.218 0.053 2.437 0.023 3.677-1.008 1.286-2.79 0.624-4.151 0.782-3.437-0.18-6.851 0.203-10.19 0.925 0 1.076 7e-3 2.158 0.045 3.256 2.249 0.549 4.384 1.497 6.37 2.7 0.314 8.841-19.202 2.856-27.908 6.505-2.482 1.045-5.753 1.113-7.34 3.595-0.91 1.466-2.234 3.023-1.97 4.873 4.141 5.875 10.882-2.443 16.966 4.775 1.313 4.595-1.964 3.615-6.31 7.31-0.91 1.098-1.354 2.497-2.256 3.602-6.17 4.008-7.817 1.439-14.83 8.912-5.001 0.97-10.356 0.647-14.875 3.369 0.271 1.399-0.226 3.347 1.331 4.151 3.911 2.444 8.776 1.587 13.025 2.933 1.053 0.797 1.196 2.241 1.76 3.377 1.609 0.91 3.286 1.707 5.016 2.414 1.098 2.895-0.038 6.024-1.737 8.43-1.752 2.128-4.791 2.173-7.032 3.527-0.624 1.421 0.135 2.933 0.474 4.332-2.496 3.69 1.384 3.066-21.583 3.61-1.09 1.97-2.376 4.317-4.948 4.362-37.218 1.678-25.108 3.219-39.121 5.114-1.692 0.278-4.527 1.075-4.136 3.264 3.577 3.652 8.063 0.545 14.747 0.391 18.765-0.442 5.834-2.042 21.027 0.82 3.835 0.865 8.009 0.902 11.386 3.166 3.482 2.444 8.152 0.18 11.687 2.602-0.113 2.73-2.414 4.392-3.82 6.49-1.669 2.429-4.866 2.745-7.22 4.219-1.482 1.557-1.677 4.144-3.73 5.234-7.809 4.634-9.691 2.878-22.448 4.633-2.091 0.978-3.369 3.083-5.422 4.106-10.27 1.867-58.18-4.022-97.306 20.335 13.551 0.904 22.066-8.307 45.461-7.964 7.768-0.745 15.417-2.895 23.291-2.542 2.489-0.188 4.407 1.73 6.746 2.241 8.573 1.212 15.642-3.325 21.456 2.279 0.737 1.151 0.542 2.67 0.88 3.986 2.136 0.068 4.294-0.015 6.43-0.271 2.775-0.526 5.325 1.038 8.069 1.211 1.85 1.384 2.745 3.504 3.174 5.723 3.256 0.677 6.49 1.504 9.664 2.527 0.308 0.775 0.632 1.564 0.97 2.354-2.083 2.993-5.309 5.114-8.897 5.783-1.405 3.835 1.589 6.81-19.455 7.287-0.361 1.512 0.173 3.655-1.497 4.527-5.706 3.656-23.877 0.96-28.427 1.669-1.083 0.895-0.075 2.316 0.09 3.407-0.632 0.466-1.188 1.038-1.797 1.527-17.855 0.452-40.958-1.242-70.376 2.286-9.522 1.178-4.773-4.66-36.128 5.482-7.567 3.255-23.409 8.58-33.127 17.109 1.79 1.542 3.971 0.263 5.828-0.429 25.654-11.729 22.406-10.03 34.857-11.273 5.813-0.158 11.506-1.519 17.304-1.873 44.965-5.065 38.561 0.406 39.399 6.272 4.091 0.128 8.205 0.263 12.281-0.218 13.719-1.762 10.336 1.536 16.74 2.008 1.263 1.346 2.226 3.076 3.835 4.054 4.948 0.669 10.453 0.812 14.454 4.234 0.023 1.166 0.06 2.346 0.113 3.535 2.313 0.139 15.206-1.448 17.071 6.31 0.346 0.782-0.684 1.211-1.113 1.7-2.068 1.361-4.625 1.609-6.949 2.286-0.323 1.03-0.609 2.091-0.887 3.144-3.317 3.271-8.167 1.654-12.288 2.068 0.105 1.429 0.557 2.813 1.775 3.7-0.113 1.053 0.361 2.662-1.113 2.888-15.78 1.119-11.934-3.338-20.252-1.835-1.331 1.309-1.542 3.256-2.046 4.971-7.531 4.129-35.785-1.563-39.339-1.414-1.023 1.466-1.812 3.196-3.279 4.294-6.186 0.823-29.128-0.815-30.367-1.038-20.289-3.025-63.29 0.902-84.582 3.76-4.353 0.571-26.183 10.059-29.367 12.506 6.821 0.97 13.131-2.519 19.658-3.843 11.555-3.94 36.959-6.178 46.95-7.28 2.805-0.188 3.053 4.099 5.903 4.136 14.661 1.729 14.532-3.174 31.533 5.58 1.782 0.269 17.555-0.278 23.042 4.776 2.497 1.233 0.308 4.625 1.858 6.332 2.557 1.376 5.535 1.602 8.25 2.595 2.346 0.714 4.302 2.376 6.723 2.873 2.324 0.451 4.633 1.03 6.859 1.865 0.504 0.797 1.03 1.594 1.564 2.399-8.454 11.518-11.988 8.687-19.38 9.242-0.045 1.715-0.06 3.444-0.068 5.174-7.393 4.49-16.349 2.203-24.441 3.316-0.263 1.497-0.293 3.046-0.572 4.557-3.798 5.841-11.341-1.572-17.613 3.873-0.835 3.083 0.662 6.182 2.294 8.731 1.279 8e-3 2.572 0.045 3.865 0.105 0.797 0.602 1.602 1.218 2.422 1.828-5.872 8.389-0.443 8.548-2.294 13.168-0.857 2.534-1.812 5.039-2.82 7.52-1.316 3.241-6.287 3.956-6.039 7.964 3.79 0.993 7.596 2.173 11.574 1.993 0.97-3.948 1.594-8.152 3.926-11.581 1.369-1.421 3.249-2.264 4.557-3.753 0.556-1.038 0.429-2.294 0.699-3.392 0.376-2.594 1.835-4.881 2.151-7.483 0.481-7.448 12.938-7.94 14.462-8.942 4.166-2.527 7.513-6.4 12.183-8.092 2.85-1.12 6.137-0.053 8.904-1.519 5.114-2.091 10.07-5.542 15.845-5.046 5.069 0.391 9.498-3.174 14.642-2.234 0.594 1.278 1.181 2.542 1.782 3.843 1.226-0.158 2.579-8e-3 3.693-0.699 4.023-2.271 8.265-4.595 12.973-4.896 3.73-0.128 6.137-3.685 9.754-4.151 3.113 0.376 6.302 0.745 9.34-0.308 0.256-1.655-0.256-3.693 1.106-4.948 1.549-0.797 3.249-1.241 4.903-1.797 0.88-12.322 7.555-9.985 10.905-12.634 3.602-2.963 8.506-3.219 12.973-3.219 2.549-0.128 4.775 1.248 6.678 2.813 2.602 2.226 6.129 2.7 9.107 4.264 4.801 9.971 9.521 2.534 10.987 15.507 0.496 0.782 1.008 1.572 1.534 2.384 1.655-0.015 3.317-0.023 4.994-0.015 3.914-6.818 3.038-5.238 3.038-13.296 8.149-5.923 5.56-9.326 26.825-9.355 4.377 0.12 6.701 4.565 10.589 5.881 1.376 0.534 2.865 0.827 4.196 1.519 0.745 1.534 0.82 3.301 1.226 4.971 1.459-0.241 3.354 0.053 4.196-1.497 2.256-2.753 0.857-6.422-0.068-9.408-0.887-2.361 1.602-4.392 3.647-4.948 3.038-0.496 6.152-0.263 9.228-0.263 2.76-0.045 5.167 1.519 7.678 2.467 2.617 0.94 4.633 2.918 6.986 4.324 1.707 1.023 3.783 0.609 5.678 0.76 7.836-0.286 14.116 5.851 21.839 6.122 1.737-3.053 4.512-5.783 8.212-6.001 5.655-1 10.183 3.798 15.755 3.662 5.686-0.105 11.98 0.241 16.432 4.264 3.174 0.594 6.219 1.685 9.175 2.978 4.084 1.91 8.769 0.399 12.928 2 8.01 2.995 15.513 10.222 11.341 11.792-2.925 0.346-5.873 0.075-8.806 0.098 0.015 0.376 0.03 1.121 0.045 1.489 1.67 1.113 3.377 2.188 5.114 3.226 0.038 0.88 0.09 1.775 0.158 2.677-9.047 2.756-11.154-5.146-29.39-3.805 1.175 4.004 12.208 5.809 19.372 10.641-0.045 0.677-0.068 1.376-0.083 2.083-0.459 0.489-0.902 0.985-1.339 1.497-17.049 0.038-27.747-8.669-39.693-8.227 1.614 5.74 24.625 9.907 25.577 16.432-3.234 0.331-14.287 0.917-23.757-2.158-3.256-1.12-6.776-0.376-10.062-1.248-7.165-1.861-3.658-1.721-35.654-1.775 8e-3 0.602 0.023 1.79 0.03 2.384 15.952 2.376 45.808 16.433 46.882 23.2-6.054 1.625-12.356 2.294-18.613 2.121-2.136-0.128-3.873 1.391-5.934 1.594-3.136-0.286-5.956-1.82-8.844-2.926-4.256-1.866-19.688-4.69-20.689-4.941-1e-3 0-23.08-4.046-23.08-4.046-4.452-1.128-9.07-0.662-13.604-0.775-7.414-0.144-23.838-0.391-31.653 1.113 4.338 3.285 11.302 3.867 26.72 5.294-2.76 0.572-5.738-0.12-8.408 0.526 6.633 0.338 13.484-1.339 19.974 0.729 6.287 1.903 12.416 4.287 18.748 6.046 25.809 8.427 17.173 12.17 16.131 12.055-4.602 0.233-9.619-0.677-13.68 2.091-8.513 0.105-17.071 0.384-25.524-0.722-6.107-0.737-11.266 3.888-17.335 3.046-2.271-0.06-4.497-0.579-6.761-0.624-2.707 0.128-4.941 1.873-7.445 2.677-2.534 0.369-5.106 0.263-7.641 0.15-2.873-0.173-5.325-2.113-8.212-2.098-4.279-0.053-8.551-0.045-12.815-0.068-1.331 0.09-2.865-0.165-3.918 0.812 0.045 1.933 0.609 3.805 0.699 5.746-0.963 1.444-2.82 0.993-4.279 1.105-3.527 0.128-7.054-1.459-10.513-0.263-5.783 1.82-11.905 8e-3 -17.756 1.293-2.925 0.594-6.091-0.113-8.814 1.309-2.211 1.09-4.482 2.038-6.768 2.933-3.226 1.256-5.49 4.023-8.438 5.753-2.572 1.474-5.106 3.113-7.957 3.978-3.204 1-6.798 0.15-9.807 1.843-10.375 5.246 2.716 3.562-31.172 3.993 0.023 0.707 0.045 1.429 0.083 2.166 14.163 6.438 9.93 2.61 19.267 3.978 3.046 3.677 4.633 8.814 9.378 10.769-0.135 2.031 0.88 4.775-1.128 6.167-2.331 1.602-5.324 1.82-7.618 3.482-1.91 1.263-3.708 2.85-5.994 3.369-2.316 0.263-4.587-0.549-6.889-0.526-1.504 0.647-1.474 2.504-1.978 3.843-5.114 2.399-10.844 2.188-16.342 2.076-2.151 2-3.437 5.385-6.61 5.926-5.197 0.308-10.416-0.105-15.597 0.293-3.835 0.541-5.693 4.414-8.874 6.114-5.242 1.519-10.529 3.49-16.094 2.662-2.361 1.527-4.264 3.738-6.828 4.941-2.128 0.526-4.369 0.369-6.535 0.293-2.986-0.068-5.407-2.076-8.22-2.753-2.512-0.398-5.091-0.256-7.558-0.902-1.775-0.384-3.407-1.316-5.219-1.497-2.94 0.09-5.791 0.88-8.656 1.459-0.218 0.624-0.662 1.858-0.88 2.482 4.362-0.286 8.686-1.233 13.086-0.782-0.293 3.354-3.693 4.602-5.67 6.828-0.248 1.309 1.068 2.068 1.685 3.053 14.615 0.028 11.601-0.855 16.462 1.346-0.451 1.73-0.752 3.497-0.948 5.287 6.91 0.347 9.129-0.683 14.567 4.061-0.955 1.451-1.985 2.888-2.534 4.557 2.198 5.356 9.352-0.869 10.822 8.333-1.309 0.572-2.617 1.158-3.911 1.767-0.03 0.737-0.075 2.211-0.105 2.948 5.757 5.032 6.686 3.209 8.761 7.46 1.715 1.226 4.031 2.249 4.332 4.625 0.451 2.369 1.564 4.52 3.587 5.934-0.466 3.805-1.045 7.626-0.82 11.484 2.587 0.526 5.204 0.948 7.784 1.549-0.487 2.22-8.296 15.971-9.243 17.462 0.03 1.06 0.158 2.121 0.369 3.196 2.391 0.316 4.821 0.233 7.242 0.263-8e-3 4.377 0.068 8.761-0.09 13.146 0.113 3.527-3.542 5.279-4.685 8.325 5.249 2.369 10.875 4.61 16.755 4.001 0.188-8.889-0.03-17.771 0.135-26.652 0.241-5.565 1.737-11.01 1.519-16.598-0.15-2.91 1.256-5.512 2.031-8.22 0.617-3.144-0.557-6.513 0.872-9.498 1.497-2.82 0.023-6.219 1.564-8.987 1.354-2.459 2.324-5.723 5.377-6.498 3.467-1.609 7.964 0.188 10.867-2.76 3.219-2.482 2.707-7.069 5.309-10.002 0.504-0.098 1.512-0.308 2.015-0.406 2.264-2.444 5.317-3.798 8.295-5.136 4.001-1.805 6.58-5.933 10.897-7.114 3.174-0.489 6.505 0.233 9.573-0.985 3.738-1.406 8.626-0.76 11.243-4.309 1.444-1.534 1.166-3.753 1.436-5.663 1.482-1.873 2.775-3.918 4.55-5.528 3.595-3.038 9.31-1.135 12.476-4.881 3.313-3.662 17.672-10.988 19.042-3.031-0.256 1.519-0.444 3.031-0.617 4.587 2.076 8e-3 4.159 0.015 6.242 0.038 0.496 0.451 1.008 0.918 1.527 1.399 0.203 2.85-0.699 5.565-1.79 8.167 2.158 0.481 4.309 1.083 6.407 1.85-0.195 5.728-2.936 3.197-3.301 10.995 2.301 1.399 5.114 2.196 6.919 4.302-0.474 5.979-7.22 9.769-6.964 15.996 1.151 0.549 2.309 1.128 3.482 1.7-0.707 2.267-12.53 22.787-18.839 30.826-1.309 1.557-2.73 3.813-1.451 5.813 2.03 0.286 4.001-0.534 5.768-1.444 2.73-1.331 4.008-4.242 5.603-6.641 4.151-7.039 9.528-13.522 11.769-21.523 2.828-7.009 4.888-14.319 7.911-21.253 1.647-5.505-2.903-11.273-0.196-16.643 0.895-2.429 3.625-3.061 5.738-4.008 5.8-8.929 3.486-11.929 7.317-14.386 2.549-1.85 5.851-1.489 8.761-2.279 2.143-3.888 6.061-7.272 10.724-7.144 3.196 0.226 5.851-1.933 8.994-2.098 4.181-0.361 8.017-2.369 12.251-2.489 0.707 1.632 1.339 3.309 1.835 5.039 2.151 1.414 4.445 2.64 6.392 4.362-0.124 8.189-0.177 6.187 3.647 8.325 0.76 5.856-0.249 5.205 0.113 9.716-0.023 3.106 5.633 3.113 4.512 6.52-2.234 4.572-6.249 8.325-7.099 13.514-0.665 4.931-11.11 9.878-17.327 18.974 6.189-1.512 10.739-6.415 16.048-9.641 5.58-3.046 9.686-8.551 11.356-14.635 0.519-3.301 4.467-4.858 4.144-8.453 2.798-3.031 5.881-5.791 8.679-8.821 7.197-0.406 14.477-0.579 21.621 0.541 4.136 0.331 9.137-1.083 12.431 2.219 2.873 4.475 1.797 10.295 4.444 14.898 5.091-0.88 7.52-5.813 11.205-8.799 5.806-2.963 12.439-0.895 18.598-0.692 3.369-0.038 6.144 2.512 7.671 5.324 1.158 2.286 1.421 5.512 4.166 6.558 3.677 1.03 6.377-2.016 9.205-3.73 6.58-2.843 16.229 1.805 15.432 9.746 5.593 8.164 11.876 0.407 19.628 3.903 4.083 1.512 6.242 5.701 9.972 7.731 5.197 1.564 10.927 1.391 15.8 4.023 2.452 1.211 4.369 3.362 7.024 4.226 2.873 0.993 6.016 1.542 8.475 3.482 1.933 1.489 4.001 2.91 6.46 3.407 5.708 1.316 10.724 4.58 16.44 5.911v3.422c-2.005 0.178-8.238-1.178-15.71 7.212-3.046-0.572-5.542-2.452-8.197-3.873-2.076-1.151-4.407-1.669-6.633-2.369-0.143 0.489-0.271 1.008-0.331 1.542 1.685 2.677 3.79 5.091 5.783 7.558 0.023 1.278 0.045 2.572 0.083 3.88-6.246 0.511-6.095-4.207-15.342-3.993 0.827 2.497 2.256 5.091 1.06 7.746-3.948-7e-3 -6.986-2.797-10.641-3.85-5.663-1.858-8.754-7.566-14.131-9.904-5.054-2.279-9.438-5.836-14.672-7.716-3.249-1.324-6.881-1.843-9.709-4.038-4.144-0.045-8.039-1.722-12.168-1.707 1.88 0.594 3.685 1.421 5.482 2.264 3.249 1.527 7.077 1.767 9.987 4.023 3.309 2.617 5.791 6.227 9.528 8.325 2.783 1.542 5.309 3.489 7.551 5.753 0.068 0.745 0.218 2.234 0.293 2.978-3.046 1.173-6.242 0.399-9.07-0.917-3.595-1.715-7.934 0.286-11.333-1.985-3.58-2.038-6.889-4.588-10.784-6.016-3.745-1.805-8.205-1.391-11.717-3.745-3.38-2.074-23.389-9.758-44.543-9.34-0.038 0.331-0.12 0.985-0.165 1.316 15.579 1.224 46.908 16.823 62.675 34.09-0.271 1.173 0.331 2.963-1.113 3.512-10.646 1.499-12.911-1.778-17.462-3.79-5.121-2.008-11.085-0.158-15.928-3.106-5.746-3.136-12.108-4.979-18.59-5.768-8.557-0.865-14.882-4.751-35.699-9.461-1.011-0.143-29.215-3.674-48.484-2.497l-0.06 1.542c5.309 1.075 10.747 0.557 16.124 0.85 4.275 6.319 22.09 2.19 30.954 11.123 1.429 1.286 3.354 1.745 5.204 2.091 22.836 3.277 13.72 1.797 21.328 7.182 2.482 1.677 5.858 0.564 8.348 2.181 1.752 1.82 3.264 3.873 4.994 5.738 1.075 0.955 0.993 2.587 0.496 3.835-5.004 3.201-22.523-0.123-23.84 2.549-0.158 1.158-0.173 2.354-0.203 3.542-5.542 1.76-11.213-0.564-16.846-0.158-3.587-0.511-6.362 2.211-9.746 2.73-4.488 0.962-25.298-2.517-26.299-2.715-1.842 1.053-3.798 2.474-6.031 2.128-15.373-0.991-59.336-16.231-66.067-8.656 0.286 1.158 0.699 2.316 1.075 3.482 6.43 1.858 13.251 0.053 19.749 1.64-0.12 1.346-0.233 2.7-0.346 4.068 7.475 3.136 15.846 0.805 23.584 2.647l-0.023 1.489c-5.339 0.993-10.687 2.151-15.823 3.941-0.098 0.654-0.18 1.324-0.263 2 3.317 0.887 6.761 1.218 10.183 0.812-1.045 0.18-2.083 0.384-3.106 0.609 5.52 1.519 11.235 0.677 16.853 1 1.948 1.918 3.001 4.723 5.49 6.189 0.038 1.549 0.053 3.098 0.098 4.67 1.707 1.918 4.151 3.956 3.715 6.836-0.451 0.925-1.038 1.775-1.579 2.67-2.805-0.083-5.715-0.308-8.37 0.79-3.813 1.564-7.979 0.12-11.905 0.872-1.76 0.933-3.181 2.361-4.708 3.625-11.791 0.246-10.113-3.045-15.883-0.647-6.06 9.879-15.826-2.776-24.757 4.144-3.369 2.737-7.904 1.339-11.852 1.685 0-0.173-8e-3 -0.534-8e-3 -0.707-2.888 0.075-5.768-0.068-8.648 0-2.715-0.09-4.73 2.437-7.468 2.234-19.193-0.188-12.093-1.185-31.586-5.821-16.117-1.887-23.389 1.249-27.088 1.73-6.107 0.617-10.927 4.858-15.56 8.498 0.053 0.466 0.165 1.384 0.218 1.842 12.821-3.057 25.31-10.764 31.48-9.859-1.263 1.775-3.151 3.377-3.271 5.708 2.548 2.646 15.107-2.831 24.02-0.526-0.549 1.399-1.369 2.632-2.249 3.85 4.141 1.854 4.407-0.601 21.749-1.053 1.436 0.075 3.166-0.293 4.234 0.978-0.263 1.933-0.714 3.843-1 5.783 8.316 1.428 9.41-1.777 16.943 0.917-0.083 2.023-0.406 4.046-1.166 5.949 1.421 1.572 3.444 2.271 5.339 3.121 2.82 1.045 3.677 4.362 6.212 5.843 2.549 1.594 4.038 4.264 6.046 6.43-0.105 1.549 0.549 3.775-1.361 4.49-3.143 1.226-6.693 1.121-9.641 2.91-3.516 9.023-12.351 5.186-17.808 6.588 0.06 1.745 0.128 3.49 0.241 5.264-7.951 6.806-15.19-0.737-23.208 2.331-0.978 2.602-1.504 5.971-4.332 7.25-4.377 0.684-9.28 0.857-12.988-1.955-4.399-3.136-11.22-3.835-15.131 0.436-0.2 5.015 0.746 6.188-12.837 5.332-5.061-1.166-9.912-3.181-15.041-4.031-0.594 0.677-1.151 1.391-1.67 2.143-0.158 1.85 1.301 3.377 1.512 5.197-1.075 2.391-3.805 3.738-4.211 6.52 7.866 4.602 3.494-0.762 14.695 6.949-0.015 1.098-0.015 2.211-0.015 3.354-1.865 0.955-3.948 1.767-5.249 3.512-0.188 1.579 1.391 2.497 2.647 3.038 5.452 2.394 7.652-0.563 13.123 6.069-3.441 4.432-1.574 2.954-8.408 5.633 0.09 1.181 0.18 2.384 0.286 3.602 8.527 4.34 8.676 3.342 8.942 8.566-2.632 2.128-3.256 5.873-1.346 8.716-0.872 1.391-2.061 2.557-3.324 3.61 0.293 1.873 0.699 3.753 1.105 5.625-0.556 0.459-1.105 0.932-1.647 1.429-5.738 0.233-11.521 0.241-17.154-1.06-1.301 1.038-2.579 2.113-3.82 3.241-1.587-0.12-3.347 0.241-4.73-0.699-5.843-3.574-2.289-3.414-8.761-3.858-13.06 14.934-15.773-1.209-21.463-0.729-3.001-0.444-5.024 2.061-7.189 3.655-2.512 2.429-6.31 1.782-9.453 1.542-4.798-1.263-7.302-6.031-11.002-8.949-1.474-0.038-2.94-0.068-4.399-0.075-0.677 1.459-1.331 2.948-1.963 4.445-9.957 2.771-11.814 1.471-18.711-6.934-5.205-2.769-6.417 4.108-16.53-1.166-5.161-29.827 1.171-23.874 0.542-34.684-7.446 0.973-13.39 16.772-22.411 26.163-4.372 5.32-6.314-0.118-1.301 33.105 0.525 15.651 2.394 20.915 3.031 25.584 0.361 4.18-0.253 21.629 7.438 40.881 1.579 3.798 1.647 8.024 3.264 11.822 0.264 1.161 20.057 61.554 20.057 61.554 1.045 2.64 3.241 6.595 0.368 8.799-3.076 1.88-6.452 4.385-10.273 3.527-12.023-2.333-14.633 0.384-14.755-5.528-0.045-2.782-2.061-4.963-2.692-7.573-2.291-13.699-1.585-5.323-1.797-12.709 0.158-1.94-1.685-3.136-2.61-4.603-1.053-1.188-0.948-2.873-1.324-4.294-1.058-5.457-2.793-2.795-3.708-14.499-2.264-2.903-2.753-6.701-4.851-9.694-1.609-2.339-1.827-5.242-2.798-7.829-6.91-18.181-8.111-14.346-18.38-21.824-14.4-10.077-27.637-10.871-40.663-21.591-2.461-2.112-15.419-2.573-17.673-2.512-13.868 0.273-11.11 1.674-20.094 8.423-11.399 8.363-5.177 3.14-23.14 10.687-9.71 5.445-27.616 4.833-30.142 5.708-13.773 3.504-10.639-3.597-22.133-3.038-7.032 0.158-14.063 0.06-21.095 0.075-4.084 0.015-7.987 2.128-12.1 1.339-2.203-0.76-3.67-2.843-5.873-3.58-3.546-0.709-15.82 4.024-16.838 4.512-7.641 3.439-11.174-2.942-26.066 1.023-2.768 0.654-5.67 0.511-8.46 0.068-4.324-0.827-8.746-0.226-13.108-0.609-1.91-1.534-3.805-3.121-5.129-5.197 9.684-8.011 6.785-6.224 14.191-6.633 0.406-1.481 0.038-3.452 1.497-4.392 2.692-2.264 6.377-0.978 9.498-1.775 1.677-1.903 2.76-4.663 5.339-5.535 4.648-1.745 9.528 0.414 14.304-0.18 2.076 0.15 3.016-1.955 4.264-3.204 1.677-2.076 4.512-2.467 6.964-2.948 3.301-0.519 6.332-2.316 9.739-2.136 3.489 0.128 6.941-0.421 10.22-1.617 0.015-0.812 0.045-1.602 0.075-2.376-2.452-1.7-5.046-3.166-7.565-4.73 1-1.218 1.993-2.429 3.001-3.632 0.045-0.88 0.09-1.745 0.15-2.587 7.49-2.61 15.575-2.775 23.434-2.542 3.595 0.143 6.956-1.534 10.544-1.474 38.534 0.444 16.906-0.166 33.834 2.82 3.001 0.542 6.069 0 9.085 0.451 26.578 8.018 2.803 1.307 35.835 13.537 2.264 0.782 4.7 0.489 7.062 0.564-0.165-0.489-0.504-1.466-0.669-1.955-18.636-6.664-14.866-1.399-18.056-16.199 7.551-0.94 13.898 3.903 20.899 5.761 5.919 1.384 10.468 6.46 16.703 6.603-2.728-9.106-4.861-4.666-60.757-23.697 0.015-0.278 0.03-0.835 0.045-1.113-8.378-0.251-29.474-13.035-30.721-13.86-0.015-1.707-0.038-3.399-0.038-5.069-2.587-2.211-6.016-3.64-7.799-6.64-0.692-2.82-1.181-5.738-1.278-8.626 0.684-0.835 1.73-1.211 2.707-1.564 3.647-1.211 7.062-3.256 10.995-3.422 3.888-0.354 8.912 0.271 11.303-3.58-3.474-4.798-9.784-7.693-11.205-13.807-0.857-2.896-4.031-4.437-4.64-7.438-0.331-2.121-0.775-4.881 1.271-6.279 3.436-3.4 8.003 0.012 15.627 0.323-0.173-5.415-5.392-8.844-5.543-14.221-0.755-14.831 10.841-8.812 17.342-9.987 0.368-3.685-1.654-6.844-2.376-10.303 1.88-3.7 6.001-6.295 10.243-5.603 0.662-0.542 1.331-1.068 2-1.579-0.459-2.632-0.925-5.272-1.008-7.934 2.136-1.346 4.58-1.82 7.039-2.151 2.038-0.256 1.564-2.843 2.549-4.166 1.354-1.504 3.226-2.369 4.873-3.467 3.928-2.401 4.364-3.963 13.687-3.181 2.61-7e-3 3.941 3.181 6.58 2.993 1.489 0.068 2.993-0.015 4.49 0.196 2.196 1.654 2.354 4.572 3.061 7.016 2.219 0.677 4.625-0.075 6.904 0.361 1.06 0.579 1.955 1.414 2.88 2.211-0.391 2.467-0.94 4.994-0.391 7.505 1.519 0.203 3.309 1.075 4.602-0.196 2.196-1.888 5.099-3.113 7.979-1.978 0.805 2.85 2.061 5.821 1.263 8.836-0.083 2.166-1.098 5.031 0.662 6.753 3.354 0.572 6.167-2.903 9.521-1.654 6.36 1.97 3.915 4.768 3.595 8.453-0.805 3.505-0.18 7.159-0.887 10.679-2.076 5.309-5.4 10.04-7.663 15.274-0.278 1.241-0.451 2.519-0.511 3.828 6.542 0.507 7.688-6.853 13.394-7.092 0.79 1.594 2.008 2.926 3.467 3.963 0.041 1 0.389 20.596-0.654 23.298-0.372 1.001-5.717 18.722-6.686 21.117-4.89 22.229-20.688 32.694-8.002 50.356 1 0.836 35.649 23.455 44.182 24.878 1.465-5.952-15.819-108.82-33.526-160.94-0.158 0.737-0.308 1.489-0.451 2.256 0.128-5.497-0.677-11.16-3.392-15.988-7.749-7.249-54.084-31.294-55.087-31.841-4.272-2.324-9.22-2.85-13.552-5.024-5.422-2.527-11.423-3.016-17.161-4.445-1.527-0.138-19.241-0.72-21.493 0.684-1.286 0.632-2.549 1.504-4.053 1.406-6.264-0.278-12.123 2.301-18.102 3.798-5.971 1.895-12.326 1.7-18.372 3.234-11.6 2.864-18.241 1.647-22.245 2.121-9.504 1.125 5.804 2.123-24.855 2.211-1.436 0.158-2.549-0.722-3.64-1.474-3.489-0.226-7.144-0.647-10.483 0.654-3.429 1.376-7.205 0.323-10.754 1.083-5.212 0.902-10.777 2.046-15.778-0.384 0.459-1.79 1.083-3.505 1.918-5.136-6.671-2.188-13.529 0.632-20.32-0.098-0.06-1.226-0.113-2.399-0.158-3.587-4.557-2.166-9.589-2.279-14.439-3.226 0.692-2.219 1.466-4.399 2.113-6.618 2.128-2.625 5.633-2.85 8.498-4.196 2.143-1.625 2.73-4.745 5.242-6.016 5.813-2.692 13.04-0.917 18.312-5.009 0.301-1.173-0.158-2.737 0.933-3.542 4.068-3.567 17.598-0.452 26.803-2.203-0.353-1.602-0.579-3.196-1.136-4.708 29.874-13.83 87.897 12.858 97.682 12.822-0.053-0.316-0.158-0.955-0.211-1.279-16.004-7.604-40.816-14.303-58.148-18.312-12.552-0.474-25.141-0.022-37.707-0.195-6.982-0.385-47.12 7.636-48.837 7.566-4.613-0.236-6.577 3.13-20.012 1.369-9.641-2.165-12.202 2.966-31.879 2.534-1.294-0.165-2.805 0.015-3.82-0.963-0.293-1.482-0.241-3.008-0.308-4.482-6.986-2.208-24.663 2.158-27.871 1.504-0.474-1.143-0.963-2.264-1.384-3.407 0.496 0.963 0.985 1.94 1.459 2.948 2.158 0.399 4.392 0.444 6.468-0.384 3.166-1.286 6.618-0.662 9.927-1.045-3.076-0.196-6.257-0.504-9.265 0.391-1.978 0.556-4.023 1.308-6.114 0.865-0.917-0.729-1.068-1.933-1.459-2.933-3.85-0.948-7.829-1.203-11.747-1.662l-0.015 0.188c3.429 0.827 6.964 0.925 10.468 1.241-3.73 0.196-7.468-0.271-11.153-0.699-1.978-1.256-3.617-2.955-5.076-4.753 1.429-3.091 4.994-3.647 7.784-4.926 3.068-1.083 4.505-4.475 7.558-5.565 3.264-1.361 7.242-0.496 10.107-2.843 0.18-1.429 0.203-2.85 0.256-4.264 11.362-5.787 3.28-0.604 22.689-4.903 0.865-1.03 0.346-2.519 0.556-3.715 6.678-5.432 18.507-3.762 22.832-4.422 1.707-0.895 2.805-2.73 4.595-3.414 25.825-2.381 25.679-1.235 30.375-2.519-8e-3 -0.354-0.023-1.053-0.03-1.406-31.236-4.17-78.906-0.618-80.897-0.775-3.309-0.045-5.685-3.174-9.032-3.008-28.021 0.48-23.845 2.693-27.149-2.933-5.302-0.496-10.634 0.504-15.928-0.105-1.316-0.797-0.97-2.88-2.241-3.745-3.786-2.506-5.063 0.398-12.965-4.43-0.03-0.444-0.09-1.316-0.12-1.752 2.632-2.234 5.919-3.407 8.912-5.031 3.226-1.767 6.956-1.985 10.483-2.737 2.745-0.391 4.437-3.001 7.107-3.58 3.347-0.729 6.693-1.482 10.025-2.264 3.399 0.316 7.453 1.421 10.341-1.008 5.373-3.563 0.588-1.485 16.229-3.083 2e-3 0 39.369-0.181 39.369-0.181-0.015-0.414-0.03-1.256-0.045-1.669-8.43-0.722-16.793-2.016-25.231-2.677 0 0-25.45 1.322-42.874 0.399-14.078-4.167-18.87 2.297-27.728-0.113-4.008-1.925-8.724-2.474-11.95-5.791 0.045-1.414 0.09-2.82 0.143-4.219 3.016-0.842 6.046-1.835 8.513-3.835 2.542-2.226 6.114-1.797 9.167-2.715 3.061-0.737 5.189-3.354 8.205-4.211-0.97 0-1.948-8e-3 -2.918-8e-3 18.73-5.37 5.318-1.698 16.116-3.076 0.12-0.541 0.353-1.64 0.474-2.188-23.03 0-11.214 0.451-19.5 1.309-17.231-1.335-8.504-0.245-16.635-0.03-2.534-1.737-4.775-3.888-6.889-6.107 2.982-5.311 7.877-3.18 24.434-9.679 0.128-0.722 0.391-2.166 0.526-2.895-2.843-0.09-5.738 0.286-8.543-0.271-2.579-1.008-4.911-2.655-7.678-3.159-3.113-0.647-6.174-1.624-8.806-3.452-0.391-2.715 0.827-5.084 2.579-7.039 12.703-1.58 9.32-0.341 10.408-4.497-5.039-0.948-9.055-4.302-13.048-7.265-0.557-4.588 5.347-4.429 8.393-5.182 0.421-2.083-0.466-3.715-2.196-4.806-0.023-1.03-0.068-2.046-0.083-3.046 1.324-0.842 2.64-1.7 3.948-2.549-0.288-8.206-2.804-11.635 1.023-13.093 2.62-0.899 20.412-1.857 22.606-1.662 1-0.993 1.993-1.985 2.978-2.986 3.166-0.113 6.445-0.572 9.521 0.436 2.031 0.624 4.317 1.482 6.295 0.218 8.676-4.748 11.923 1.443 14.86 4.136 5.619 2.158 6.966-2.851 11.679-4.685 3.136-1.459 6.686-0.842 9.995-1.519 23.072-4.477 4.524-8.135 38.444-9.265 2.226 0.045 3.723-2.076 5.881-2.271 31.979-2.158 34.591 0.77 36.752-2.196-11.187-3.853-56.726-0.997-57.726-1.03-13.715-0.322-22.18 5.37-55.673 5.182-3.971 0.075-7.347-2.429-11.22-2.941-3.053-0.391-5.768-1.963-7.851-4.174 2.858-5.497 8.987-7.949 14.379-10.235 2.459-0.97 3.106-4.144 5.678-4.948 6.472-2.518 25.698-3.44 29.42-5.723-7.274-3.01-30.083 0.674-31.954 1.226-10.655 3.032-12.138 5.387-15.033 1.655-5.43 0.075-11.078 2.429-16.357 0.369-1.474-1.655-3.211-3.031-5.009-4.294-8e-3 -1.324 0-2.632 0-3.926 4.207-4.167 16.083-9.918 20.643-10.905 2.587-0.624 5.888-0.406 7.197-3.264-6.02-2.177-27.816 2.11-40.572-6.362 1.262-7.901 11.419-9.789 15.718-11.875 0.015-1.008 0.038-2.008 0.053-2.993-5.279-0.842-10.055-3.354-15.214-4.648-2.324-0.587-4.219-2.083-5.986-3.61-0.015-1.188-0.038-2.354-0.06-3.512 6.605-6.453 7.476-1.926 13.838-5.964-0.03-0.865-0.053-1.715-0.083-2.557-3.497-2.173-7.017-4.317-10.671-6.204 0.505-3.894-1.798-2.293 4.896-7.295-1.376-1.805-3.008-3.392-4.806-4.76-0.06-1.128-0.128-2.234-0.18-3.339 1.692-1.7 3.595-3.204 5.144-5.046 0.76-4.948-0.188-10.07 0.609-15.026 3.161-4.812 16.078-1.695 22.772-1.572 2.181-0.602 4.234-1.617 6.483-1.978 1.286 0.662 2.579 1.331 3.881 1.993 0.158 1.865 0.429 3.79 1.745 5.257 1.256-0.068 2.512-0.113 3.768-0.135 1.203-1.256 2.294-2.647 3.745-3.61 2.67-0.511 6.34-0.504 8.017 2 1.149 3.977 3.594 10.901 7.754 10.596 1.617-1.136 1.67-3.196 1.94-4.948 4.748-3.855 6.434-5.589 12.1-2.925 1.67 2.88 4.264 5.234 5.264 8.491 1.519 4.174 1.805 9.453 5.971 12.033 12.233-15.123 6.575-17.286 20.328-12.612 2.106 0.85 4.61 1.271 6.061 3.189 11.052 14.012 1.555 19.1 8.528 27.668 0.414 0 1.241-8e-3 1.655-0.015 4.033-12.675 4.416-7.871 9.145-16.026 0.805-1.918 1.06-4.099 2.64-5.588 7.155-1.146 2.949 0.94 10.611-7.693 5.069-0.602 9.604 3.196 10.724 8.009 1.865 0.714 4.309 0.797 5.573 2.565 2.314 8.836-10.183 34.852-1.436 44.897 4.637-8.234 2.285-14.95 4.535-18.62 1.602-1.211 3.422-2.143 4.723-3.708 1.692-10.873 3.796-10.818 8.528-15.823 4.368-5.361 16.876 1.342 17.425 7.836 2.452 0.105 4.903 0.158 7.355 0.15 5.091 10.073 3.548 11.552 3.768 17.891 0.737 0.902 1.504 1.79 2.106 2.82-0.909 6.445-3.919 32.183 1.775 36.158 1.737-1.512 3.444-3.151 4.648-5.129 0.534-2.527 0.286-5.182 1.121-7.656 0.933-2.948 1.361-5.994 1.73-9.039 0.857-2.61 3.753-3.587 5.512-5.452 3.453-17.232 8.008-9.467 13.687-13.755 0.511-1.583 1.509-8.478 11.228-8.393 1.579 1.534 2.933 3.302 4.61 4.745 5.822 2.7 6.037-0.232 7.663 8.468 1.918 0.812 3.873 1.534 5.858 2.166 0.88 2.031 0.331 4.151 0.135 6.265 0.278 2.031 1.241 3.918 1.331 6.009 0.241 1.166-0.18 2.76 1.098 3.482 10.371 1.359 11.288-19.238 23.403-10.559 6.364 0.029 7.977-4.81 16.409-1.068 2.519 1.158 5.558 1.053 7.836 2.737 2.85 1.91 2.685 6.077 5.64 7.919 5.823 5.365 14.54-5.57 14.018 14.732-3.437 3.196-5.858 7.332-7.641 11.642 3.505-8e-3 7.017-0.015 10.529 0.09 2.309 2.783 3.723 6.137 5.084 9.453 1.025 2.087-1.723 5.827-2.422 12.973-0.421 4.332-1.91 8.491-2.249 12.845-0.353 5.189-0.857 10.401-2.061 15.477-1.09 3.993 1.151 7.994 0.113 12.003-2.191 10.073 2.659 14.302 7.904 20.673 2.361 2.971 6.212 3.881 9.273 5.896 4.136 2.76 8.272 5.625 12.89 7.528 5.243 2.12 4.195-3.82 0.369-22.787-14.783-81.238-3.483-100.82-20.922-132.98-1.083-1.482-2.715-2.504-3.617-4.106-0.489-1.918-0.286-3.933-0.85-5.821-0.722-2.895-2.948-5.167-3.392-8.137-0.707-4.099-2.865-8.137-6.558-10.25-49.689-28.947-55.856-24.682-101.95-24.938-2.595-0.113-4.866-1.812-7.505-1.572-10.025 0.128-20.049 0.135-30.067 0-2.925-0.286-5.415 1.745-8.318 1.609-2.512 0.022-5.031 0.053-7.543-0.038-2.564-0.083-4.836-1.654-7.423-1.564-11.047 0.12-22.087 0.053-33.135 0.165-3.023 0.301-5.219-2.497-8.212-2.339-3.73-0.406-8.566 0.925-11.235-2.482 0.113-2.376 0.895-4.648 1.286-6.964 2.459-0.985 5.061-1.474 7.633-2.076 5.124-4.115-1.201-6.058 21.756-6.31 5.001 0.12 9.521-2.331 14.364-3.204 3.076-0.932 6.437-0.21 9.423-1.436l0.699-1.602c-10.195-2.416-41.968-1.041-66.255 7.723-5.136 0.564-9.995 3.685-15.251 2.384-8.559-1.506-8.5 0.818-19.688 1.331-10.101 4.171-14.294 2.202-17.868 1.835-0.978-1.241-1.948-2.489-2.91-3.723-9.483 0.166-16.353 6.669-24.84-1.414-14.731-0.408-12.403 1.788-19.23-3.256 0.038-0.707 0.075-1.391 0.113-2.068 4.287-1.617 6.543-6.25 11.017-7.445 6.493-2.174 5.523-1.006 8.032-6.355 5.761-2.241 12.145-1.482 18.019-3.279 2.294-0.918 1.985-4.422 4.347-5.287 13.11-5.46 23.176-2.972 29.42-3.888 1.624-0.827 1.158-2.467 0.466-3.745-9.537-0.419-44.649 4.149-45.649 4.264-4.046 0.662-7.934-1.113-11.957-1.113-2.542-0.045-5.084-0.098-7.618 0.045-2.557 0.15-4.851 1.624-7.445 1.542-16.191-0.054-14.276 0.651-19.982-1.677 0.083-1.286 0.165-2.587 0.248-3.85-5.287-1.248-10.799 0.248-16.109-0.85-2.662-3.143-6.776-3.918-10.198-5.919-0.015-1.113-0.038-2.211-0.053-3.309 20.648-3.656 21.103-7.021 28.457-6.866 0.895-0.94 1.572-2.076 2.061-3.256-1.579-0.038-3.159-8e-3 -4.738 0.06-3.339 2.843-7.844 0.459-11.739 0.91 0.85-0.436 1.737-0.782 2.595-1.181-4.535 0.639-9.145-0.218-13.657 0.549-4.091 1.203-8.363 1.482-12.574 2.098-2.414 0.737-3.219-2.083-4.377-3.58-13.321-0.9-10.925 0.964-15.755-2.467 8e-3 -0.767 0.015-2.309 0.015-3.083 9.353-7.664 13.02-5.779 17.981-8.633 4.505-2.497 9.4-4.64 14.665-4.452 0.504-0.444 1-0.872 1.504-1.286 0.978 0 1.948 8e-3 2.918 0.03 0.541-0.639 1.083-1.248 1.624-1.857-8.551-2.211-17.455-0.526-26.156-1.173-2.279-0.579-4.279-2.196-6.731-2.068-3.607-0.088-26.132 3.519-26.382-5.257 3.7-1.978 7.821-2.85 11.672-4.43 9.106-4.408 17.585-3.595 22.794-4.738-0.075-0.684-0.158-1.354-0.233-2.016-7.904-1.722-16.026-1.955-24.08-1.466 1.929-1.337 3.003-0.904 16.252-0.932-16.562-0.391-16.347-0.211-17.598 0.414-7.985-1.242-18.612 0.942-22.734-6.242 6.046-3.625 13.183-4.166 19.952-5.452-0.075-0.767-0.226-2.286-0.293-3.046-6.949-0.865-13.792-2.301-20.591-3.963 0.707-0.173 1.421-0.338 2.136-0.481-1.421-0.158-3.128 0.226-4.129-1.075-0.12-1.173 0.489-2.211 0.895-3.241 3.076-0.812 7.069-0.587 8.867-3.7-2.655-1.903-5.813-2.752-8.979-3.339 0.015-0.737 0.023-1.466 0.038-2.188 0.714-0.677 1.421-1.354 2.136-2.016-1.482-1.594-3.249-2.963-5.558-2.737v-1.918c0.662 0.015 1.985 0.045 2.647 0.068 2.82-3.459 1.113-8.633 3.76-12.145 2.865-1.662 6.302-1.399 9.483-1.474 2.948 0.098 5.272-2.376 8.212-2.256 2.61 0.406 5.024 2.113 7.761 1.482 1.001-0.65 7.694-8.995 14.687-1.497 2 0.165 4.084 0.105 4.896-2.068 8.982-3.345 10.402 2.335 12.619 3.926 1.497 0.556 3.159 0.376 4.723 0.564 2.158-2.098 2.264-5.618 4.888-7.272 2.331-1.865 5.46-1.053 8.182-0.918-0.737 0.218-1.482 0.451-2.219 0.692 7.024 1.512 12.973 6.407 16.537 12.552 1.136 0.045 2.271 0.098 3.407 0.158 5.089-9.148 5.57-6.393 8.13-11.251 14.674-5.023 13.203 14.183 20.854 7.686 2.655-2.391 6.648-1.812 9.37-4.099 3.61-2.813 8.227-3.474 12.544-4.52 3.309-0.767 5.061-4.332 8.415-5.001 4.595-1.128 9.22-2.136 13.77-3.459 0-0.323 8e-3 -0.978 8e-3 -1.301-18.702-4.385-27.495 4.291-37.346 3.572-3.399-0.371-2.906-3.719-15.718-1.91-4.813 0.85-9.724 0.383-14.582 0.594-0.654-0.978-1.309-1.948-1.955-2.918-5.024-0.068-10.288 0.308-15.011-1.745 0.414-2.7 2.234-4.896 3.542-7.205 2.346-2.572 6.144-2.647 9.182-3.963 3.136-0.932 4.023-5.076 7.408-5.52 5.573-0.993 11.205-2.188 16.252-4.881 0.023-0.466 0.06-1.406 0.075-1.88-8.86-1.765-34.09 0.259-35.09 0.12-0.955-0.602-1.812-1.339-2.685-2.038-4.196 0.098-8.092-1.978-12.303-1.557-8.439 0.331-16.711-3.505-18.432-4.851 0.015-0.429 0.038-1.279 0.045-1.707 3.256-3.941 9.085-2.828 13.138-5.422 2.925-1.812 6.197-2.903 9.543-3.61 0.376-0.534 0.76-1.06 1.136-1.579-5.144-1.97-10.664-1.444-16.041-1.647-2.647 0-4.61-2.203-7.197-2.504-5.099-0.827-10.987 0.256-15.123-3.58 0.023-0.767 0.075-2.301 0.098-3.068 5.4-2.211 10.882-4.399 16.65-5.445-0.03-0.842-0.053-1.677-0.075-2.504-2.993-1.151-6.016-2.527-9.295-2.452-1.85 0.06-3.662-0.286-5.144-1.444-8e-3 -1.361-0.023-2.715-0.038-4.061 2.083-1.098 4.46-1.948 5.723-4.084-3.204-2.136-7.325-1.068-10.513-3.151 0.308-1.91 0.662-3.903 2.602-4.753-2.65-3.001 2.962-10.521 4.775-11.363 6.539-3.316 16.529-3.031 17.545-3.196 2.391-0.699 4.053-2.707 5.896-4.249 3.858-0.113 8.137-0.76 11.431 1.752 0.993-0.158 1.978-0.301 2.971-0.444 0.872-1.854 1.921-6.497 9.04-4.858 5.001 1.827 1.615 6.957 11.093 8.099 0.827-0.948 1.67-1.888 2.497-2.828 0.015-2.978 1.85-6.498 5.249-6.317 4.49-0.714 7.43 3.189 11.078 4.956 6.598 3.757 4.579-0.831 10.431 8.115 1.429-8e-3 2.865-0.023 4.302-0.023 2.119-6.835 0.186-4.128 9.972-9.062 5.507-2.98 11.19 3.966 13.83 5.189 5.272 0.384 9.228-3.632 13.341-6.242 11.115-2.181 6.632 1.756 28.465-5.294-0.271-0.278-0.797-0.842-1.068-1.121-6.791-0.842-13.544 1.647-20.358 0.97-12.881-1.345-18.909 1.485-25.577-0.06-4.264-0.891-5.193-3.067-19.591-1.203-4.07 0.531-19.12-4.684-21.584-5.843-0.015-1.263-0.03-2.527-0.045-3.783 3.64-1.414 7.603-1.858 11.07-3.715 2.489-1.294 5.174-2.136 7.942-2.572 0.263-0.226 0.797-0.684 1.06-0.91-4.649-2.35-0.471-1.523-20.967-1.579-3.136 0.143-5.873-2-9.04-1.609-5.964 0.519-11.86-0.549-17.695-1.662-0.083-1.226-0.158-2.452-0.233-3.662 7.393-3.783 15.868-4.407 23.351-7.972-4.886-2.783-25.329 1.287-33.165-3.113 8e-3 -0.827 0.015-2.474 0.023-3.301 2.587-2.031 5.994-2.753 8.408-5.001-3.189-6.399-13.347-0.469-18.455-3.332 1.226-1.685 2.504-3.316 3.798-4.941-1.978-0.384-3.963-0.722-5.956-0.993 0.256-1.76 0.91-3.407 1.459-5.076-0.03-2.113-0.504-4.196-0.722-6.279 4.069-1.812 8.483-2.67 12.913-2.918 2.617-0.12 4.595-2.121 7.032-2.858 2.407-0.391 4.866-0.045 7.287-0.323 2.437-0.369 4.061-2.467 6.264-3.369 4.956-0.647 9.98 0.459 14.943-0.173 1.278-0.662 1.564-2.226 2.203-3.392 3.738-2.143 8.13-1.805 12.266-1.564 1.942 1.569 9.83 6.996 12.687 6.468 0.489-2.602 0.226-5.249 0.158-7.874 3.128-3.535 8.107-2.775 12.318-2.437 2.459 0.692 4.317 2.662 6.693 3.572 2.61 1.188 5.633 1.444 8.077 2.993 2.474 2.572 4.46 6.573 8.633 6.287 1.286-1.248 2.7-2.376 3.82-3.775 0.572-1.497-0.135-3.798 1.707-4.505 4.166-2.061 9.31-2.219 13.409 0.113 3.001 1.737 6.731 1.361 9.686 3.211 12.855 8.123 6.951 11.967 18.162 10.423 1.331-0.369 3.113-0.308 3.783-1.775 0.226-1.384 0.211-2.798 0.474-4.166 1.06-2.038 2.647-3.745 3.805-5.716 1.166 0.023 2.346-0.038 3.497 0.196 4.084 2.286 6.061 7.047 10.152 9.303 2.023 0.316 4.091 0.075 6.137 0.068 1.745 1.429 3.504 2.835 5.159 4.362 0.308 1.436 0.865 2.813 1.609 4.091 2.211-0.045 4.572-0.632 6.701 0.18 0.361 2.685-0.083 5.422 0.368 8.099 1.105 2.73 2.625 5.294 3.249 8.205 3.978 0.263 4.648-4.384 5.174-7.325 2.391-0.872 5.197 0.865 7.663-0.361-1.384-2.143-1.474-4.73-1.482-7.19 0.955-0.669 1.91-1.331 2.858-2 5.828 0.677 9.536 5.783 14.341 8.581 4.076 2.166 7.754 5.182 10.611 8.799 1.301 4.993 2.188 10.115 2.775 15.251 3.181 18.2 4.592 15.689 9.604 22.569 1.038 0.015 2.076 0.03 3.121 0.068-2.779-17.526-4.746-21.316-3.347-25.757 1.79 0.038 3.595 0.068 5.392 0.083-0.023-1.121-0.03-2.241-0.105-3.339-0.154-4.508-8.434-9.948 2.948-11.213 2.491-4.336 2.456-6.018 13.401-5.881 7.051 8.221 5.48 3.254 14.544 16.018 2.038-0.045 4.084-0.113 6.129-0.211 10.449 12.825 7.017 9.919 9.739 15.259 1.346 3.557 3.602 6.678 4.948 10.235 1.459 4.242-1.414 8.558-0.113 12.815 1.286 4.091 1.489 8.4 1.933 12.642 0.278 4.828 2.188 9.416 2.219 14.266 0.12 2.399-0.248 4.971 0.97 7.159 3.181 6.402 2.557 10.655 10.243 15.853 1.121 0.805 3.226 1.391 3.715-0.406 0.043-1.008-0.56-61.348-1.519-63.412-1.032-2.394-4.376-20.186-4.467-24.908-10.798-12.206-2.262-7.057-17.853-14.349-27.185-10.413 6.546-1.748-53.56-16.289-8.375-0.669-26.377-5.159-34.917-3.933 1.549-0.211 3.106-0.406 4.655-0.617-20.029-3.56-15.875-3.602-23.456-3.211 1.03-0.173 2.068-0.338 3.106-0.496-3.309-0.654-6.641-1.218-9.927-2.015-1.94-0.226-3.031-3.632-0.714-4.099 4.226-1.512 8.852-1.301 13.131-2.662-0.015-0.278-0.045-0.827-0.06-1.105-6.46-1.737-13.168-1.677-19.801-1.7-9.082 0.355-24.822-5.372-32.308-5.084-12.898 1.29-14.217-2.799-15.026-7.107 6.851-3.604 7.126-1.403 19.545-5.452-4.569-1.622-3.233-2.29-26.321-1.97-2.685 0.113-5.009-1.391-7.52-2.053-1.782-0.203-3.527 0.323-5.287 0.481-5.302 0.94-10.295-1.873-15.612-1.324 0.03-1.196 0.06-2.384 0.098-3.572 6.377-4.836 14.259-6.768 21.531-9.701-1.006-0.53-16.3-4.102-20.298-3.978-3.083 0.263-5.565-1.745-8.039-3.241-0.038-1.248-0.083-2.489-0.128-3.723 3.324-2.106 7.693-0.978 10.807-3.602-0.023-0.376-0.068-1.136-0.09-1.512-4.542-1.376-9.175-2.437-13.777-3.595-0.376-2.429 1.015-4.369 2.7-5.926-1.812-0.271-3.61-0.617-5.392-1.038-0.045-0.714-0.128-2.136-0.173-2.85 4.527-3.647 4.49-10.468 9.325-13.837 4.339-0.376 8.686 0.053 13.033-0.023 2.971-0.391 5.949-0.767 8.942-1.015 3.941-0.211 5.7-5.016 9.761-4.903 4.58-1.075 8.37 3.632 12.897 2.038 2.625-1.203 3.715-4.512 6.625-5.287 9.392-3.264 13.01 11.423 22.366 9.438 0.038-1.489 0.09-2.971 0.143-4.452 2.113-1.218 4.347-2.873 6.949-2.324 2.581 0.486 15.603 6.462 16.605 7.062 3.144 1.797 4.038 6.498 8.182 6.663 2.015-3.896 6.167-6.468 10.581-6.31 2 0.158 3.625-1.015 5.076-2.234-0.023-0.812-0.06-2.437-0.083-3.249-3.617-1.015-7.415-0.466-11.085-1.113-4.43-0.632-8.445-2.767-12.77-3.813-13.691-3.329-24.637-4.257-24.637-4.257-0.699-0.564-1.068-1.436-1.579-2.151 0.887-1.497 1.451-3.301 2.828-4.437 2.692-0.902 5.58-1.241 8.107-2.632-0.03-0.82-0.068-1.647-0.09-2.459-3.55-2.121-7.731-2.595-11.634-3.76-4.49-0.699-8.212-3.467-12.469-4.866-2.7-1.226-6.054-1.557-8.062-3.948-0.399-2.497 1.858-4.226 3.249-5.971 8.42-0.771 12.196-0.826 11.807-4.648-6.121-4.438-15.685-3.606-16.214-10.483 0.662-0.662 1.331-1.316 2-1.97 1.121-0.421 2.271-0.782 3.309-1.391 0.158-0.692 0.459-2.083 0.609-2.783-2.512-1.263-6.355-1.985-6.543-5.445 1.903-2.489 5.136-2.121 7.896-2.572-0.045-0.797-0.128-2.407-0.165-3.211-2.151-0.955-4.226-2.053-6.249-3.249 0.241-2.986 3.414-3.79 5.52-5.197-0.865-1.685-1.587-3.429-1.985-5.279 3.827-2.444-0.246-2.578 25.81-1.429 0.85 0.835 1.7 1.67 2.557 2.504 1.579-0.038 3.159-0.083 4.745-0.143 1.226-1.188 2.542-2.632 4.46-2.264 4.693-0.361 7.566 3.873 10.288 6.979 2.271 8e-3 4.557-0.165 6.686-1.03 0.038-0.496 0.128-1.474 0.173-1.963 5.4-1.354 9.281-3.815 16.906 10.273 0.857 1.73 2.752 1.782 4.43 1.685 4.504-6.769 4.689-4.75 13.672-6.197-1.957-6.813-11.424-8.024-21.411-16.161 0.647-0.729 1.294-1.451 1.94-2.173-0.038-0.609-0.083-1.211-0.113-1.812-5.315-1.65-8.491 0.308-14.071-5.437-0.241-1.482-0.158-2.993-0.165-4.482 0.662-0.098 1.324-0.188 2-0.263 0.489-0.812 1.263-1.482 1.557-2.391-5.314-4.263-15.008-4.566-12.371-11.476 1.94-1.474 4.58-1.384 6.851-2.046-4.794-6.369-6.154-1.984-9.573-10.626-2.752-1.098-6.024-2.166-7.295-5.114-0.249-3.777-0.873-4.013 11.807-3.64 2.579 0.06 4.836 1.632 7.415 1.647 3.332 0.045 6.693-0.12 9.965 0.677 0.391-0.218 1.181-0.662 1.579-0.88 0.233-1.196-0.256-2.88 1.09-3.535 10.394-1.211 7.848 5.381 13.702 5.836 2.143-0.301 3.73-2.249 5.964-2.249 10.345-0.572 8.012 9.114 17.425 6.678 0.857-0.963 1.474-2.482 2.94-2.564 0.835-0.466 2.241 0.203 2.843-0.466-1.414 0.128-2.828 0.196-4.234 0.338-1.534 3.414-5.896 2.828-8.596 1.233 0.18-0.113 0.534-0.346 0.714-0.466 1.542 1.391 3.602 1.391 5.55 1.06 1.143-0.978 2.061-2.203 3.204-3.181 1.309 0.06 2.64 0.376 3.858 0.88 23.734 16.525 12.61 7.011 19.087 16.086 1.053 0.173 2.113 0.308 3.181 0.399 5.924-4.402 7.157-2.551 13.853 0.519 1.933 1 4.084 1.722 5.715 3.219 1.624 1.88 0.301 4.828 1.985 6.671 3.723 0.444 5.858-3.55 9.31-3.933 3.489 0.707 5.941 4.43 9.814 3.843-8.135-10.798-37.303-24.855-48.371-31.164 0.015-1.444 0.03-2.895 0.068-4.339-27.364-13.585-24.819-12.557-27.412-15.447 1.715-1.068 3.557-1.895 5.362-2.79 0.053-0.481 0.15-1.436 0.203-1.91-2.324-2.474-6.137-2.745-8.4-5.302-6.131-7.164 1.742-8.497 3.264-9.228 0.203-4.287-4.595-5.37-6.625-8.423 0.496-2.068 0.579-4.249-0.572-6.122-2.309-1.008-3.993-2.903-5.685-4.685-0.075-1.233-0.143-2.459-0.218-3.685-0.474-0.714-0.955-1.406-1.346-2.166 0.519-0.91 1.211-1.707 1.842-2.534 5.442-0.231 21.078 8.132 26.983 6.761 3.557-0.654 7.896-1.865 10.935 0.812 2.94 1.933 5.332 5.723 9.273 5.257 3.294-0.308 7.325-2.053 10.017 0.782 4.099 4.437 6.776 9.995 10.762 14.544 2.361-0.188 4.7-0.647 7.062-0.857 5.633 1.873 10.649 5.234 15.296 8.882 4.302 3.083 1.444 10.137 6.249 12.822 3.7 1.692 7.821 3.941 12.003 2.745 0.594-4.317-2.504-7.671-5.001-10.762-2.775-3.271-4.851-7.22-8.415-9.739-45.934-32.119-40.315-23.603-54.891-32.308 0-0.587 8e-3 -1.166 0.015-1.737 1.045-0.587 2.083-1.188 3.128-1.775-0.135-1.098-0.263-2.188-0.391-3.279-2.933-1.745-5.475-4.091-8.596-5.512-0.293-0.639-0.587-1.271-0.872-1.895 0.308-0.496 0.617-0.985 0.933-1.466 1.324-0.82 2.241-1.978 2.407-3.58-2.933-1.865-6.701-2.88-8.536-6.076-1.722-2.497-1.083-6.55 1.745-7.942 3.121-0.579 6.407 0.271 9.468-0.745 1.707-0.459 3.512-1.354 5.287-0.617 3.693 1.331 6.565 4.813 10.664 4.963 2.519-0.481 4.836-1.985 7.49-1.67 4.557-0.241 7.423 3.835 10.513 6.498 1.963 2.256 5.031 0.436 7.505 0.466 7.866 3.512 15.327 9.867 24.456 8.964-2.189-11.789-17.666-16.018-23.328-22.937 0.023-1.166 0.053-2.324 0.083-3.489-15.259-11.641-15.317-6.585-16.853-12.973 0.955-0.541 1.895-1.09 2.858-1.632-0.835-4.903-6.58-5.979-9.408-9.468-8e-3 -3.008-0.038-6.016 0.015-9.024 0.76-0.767 1.527-1.527 2.286-2.294 10.553-0.316 7.717 0.602 14.078 2.873 2.226-0.211 4.339-1.429 6.618-1.143 3.978 0.466 6.452 3.963 9.626 6.009 2.256-0.211 4.482-0.782 6.761-0.745 3.226 0.842 5.58 3.723 9.055 3.948-1.88-5.761-6.287-10.137-11.093-13.597-2.783-1.722-2.971-5.407-5.347-7.475-3.264-3.061-7.129-5.445-10.13-8.784 0.489-4.685-3.948-7.129-6.249-10.506-8e-3 -0.745-0.015-2.234-0.023-2.971 2.85-2.482 6.746-2.625 10.333-2.399 3.467-0.135 5.527 3.865 9.092 3.264 5.708-0.963 9.874 3.715 14.958 5.197 0.384-0.173 1.151-0.526 1.542-0.707-3.79-6.144-7.829-12.401-13.725-16.733-0.308-1.587-0.662-3.166-1.038-4.73-8.92-5.461-8.389-12.674-8.43-21.644 1.685-0.459 3.429-0.617 5.182-0.639 1.673 1.369 18.089 10.272 20.914 11.115-0.241-1.466 0.338-3.211-0.519-4.52-3.903-4.648-5.738-10.671-9.957-15.108-3.888-3.926-5.34-10.183-3.219-15.334 8.365 0.246 9.163 6.463 13.965 5.016 2.994-7.452-7.994-10.155-3.362-19.117 2.346-0.782 6.926-0.902 5.911-4.497-2.187-5.017-10.402-14.343-3.204-16.575 3.324-1.173 5.911 2.008 9.092 2.309 2.617-4.219-3.655-8.648-0.406-12.672-3.189-0.218-2.128 3.971-1.737 5.949-0.481-1.94-1.045-3.896-0.993-5.911 1.715-1.827 4.821 0.624 6.212-1.429 0.158-3.249-0.18-6.505 0.113-9.746 1.862-2.075 4.374-4.016 4.712-6.979m-40.407 337.78c1.262 20.496 4.555 19.868 6.896 30.021 1.835 3.196 2.188 6.874 3.023 10.401 0.812-0.068 2.429-0.203 3.234-0.271 0.297-4.58-1.071-27.89-9.393-39.963-1.255-0.067-2.511-0.127-3.76-0.188m-73.692 40.934c0.669 2.331 0.925 4.745 1.256 7.144 0.421 0.579 1.158 1.369 1.97 1 1.369-1.158 2.497-2.579 3.738-3.865 0.045-1.414 0.068-2.828 0.09-4.226-2.339-0.504-4.723-0.707-7.054-0.053m26.276 9.513c-0.278 2.617 2.03 4.121 3.113 6.204 1.993 4.189 2.211 8.897 3.429 13.311 1.181 0.346 2.354 0.714 3.542 1.068 0.406-0.496 0.827-0.993 1.248-1.482 0.03-2.971 1.865-5.317 4.106-7.054 3.151-0.038 6.302 0.12 9.453 0.188 3.918 2.722 5.317 7.46 7.633 11.393 6.066 11.785 7.416 7.342 8.513 19.786 2.327 7.812 0.448 22.872 4.414 28.322 0.669-0.045 1.346-0.09 2.023-0.12 4.082-28.209 3.153-31.08 3.249-41.881-11.908-19.544-9.473-14.405-45.31-29.142-1.713-0.713-3.615-0.533-5.413-0.593m176.21 17.959c-0.677 1.309-1.85 2.61-1.444 4.204 1.128 2.271 3.911 1.188 5.911 1.278 8e-3 -1.414 0.015-2.82 0.015-4.219 0.963-2.046 4.324-3.971 2.354-6.362-1.211 0.06-2.422 0.105-3.625 0.143-1.789 1.128-3.609 2.572-3.211 4.956m-42.64 12.596c-0.82 2.67 2.136 4.648 2.241 7.295 0.023 1.564 1.654 1.557 2.813 1.685 1.993-3.008 3.038-6.52 5.106-9.461 0.068-0.963 0.135-1.925 0.211-2.873-3.603 0.422-7.37 1.219-10.371 3.354m-29.909 9.566c-3.715-0.06-6.377 2.956-9.385 4.693-0.03 1.181-0.053 2.361-0.068 3.55 2.437 0.135 4.963-0.384 7.347 0.203 0.519 2.925 0.354 5.994 1.271 8.889 4.839-1.157 3.636-8.106 11.657-17.395 0.053-0.384 0.15-1.158 0.203-1.542-3.85-0.699-7.295 1.302-11.025 1.602m-154.34 28.668c-0.023 0.963-0.045 1.933-0.06 2.91 2.579 0.887 3.196 4.941 6.242 4.414 3.956-0.895 8.385-1.391 11.123-4.753-3.136-1.213-14.094-3.003-17.305-2.571m22.915 6.821c4.082 10.45 7.04 2.178 16.831 27.705 0.97 0.045 1.955 0.098 2.933 0.15 1.888-2.158 3.023-4.775 4.354-7.265 1.226-2.158 3.888-2.527 5.731-3.926 0.933-1.263 1.7-2.64 2.579-3.926 1.888-8e-3 3.828 0.015 5.58-0.812-0.038-0.745-0.105-2.226-0.143-2.971-5.001-2.692-10.724-3.362-16.191-4.527-17.076-6.447-19.748-7.731-21.674-4.428m209.63 11.92c-4.887 2.129-0.08 1.926-8.979 3.437-7.866 0.993-15.327 3.79-23.005 5.58-0.03 0.767-0.053 1.549-0.075 2.331 8.634 4.4 8.961-1.511 9.182 9.318 0.955 0.662 1.94 1.309 2.82 2.106 0.579 1.466-0.188 3.068-0.346 4.572-0.564 2.406 0.023 4.851 0.609 7.189 0.609-7e-3 1.226-0.015 1.842-0.015 1.67-2.264 3.948-4.234 4.347-7.182 3.67-5.046 6.061-10.957 8.46-16.71 1.963-2.151 5.182-2.391 7.408-4.196 1.835-1.451 3.535-3.076 5.332-4.572-0.278-0.534-0.835-1.587-1.113-2.113-2.165 0.067-4.339-0.023-6.482 0.255m-159.25 2.707c-0.256 2.58 1.617 4.452 2.564 6.648 6.617 19.641 10.31 12.648 11.942 63.983 1.45 1.798 4.649 11.202 7.114 13.597 0.654-0.729 1.309-1.459 1.963-2.173 0-6e-3 -0.97-23.546-0.97-23.546-3.519-14.765 7.252-16.358-8.032-49.01-1.143-2.376-2.504-4.941-5.031-6.069-3.075-1.414-6.008-3.588-9.55-3.43m109.57 16.778c-3.505 1.12-7.242 1.309-10.671 2.655-3.933 1.451-7.468 3.76-11.333 5.362-30.259 11.726-17.755 7.924-39.474 21.531-5.412 3.207-2.886 3.685-10.867 19.057-0.323 2.646-1.748 44.87 3.655 58.494 0.669-0.165 1.324-0.369 1.978-0.609 0.219-0.885 0.888-14.781 0.534-17.432 0.902-6.468 0.03-13.055 0.669-19.538 4.293-9.139 3.349-24.658 19.718-37.587 5.879-2.707 12.62-11.899 14.168-13.657 0.797-1.098 2.279-0.699 3.452-0.895 0.737 1.827 1.248 3.738 1.888 5.618 2.113 0.887 4.625-0.03 6.866 0.602 0.248 2.414 0.218 5.024 2.316 6.678 2.626 5.981-1.956 5.078 1.662 11.153 1.263-0.03 2.534-0.045 3.813-0.038 1.926-4.137 0.444-24.871 8.476-33.007 1.248 0.782 2.73 0.775 4.166 0.85 6.943-7.821 6.363-8.401 6.453-10.13-2.528-0.069-5.07 0.081-7.469 0.893m79.701 71.158c-11.807 1.097-21.335-1.598-38.279 2.467l0.278 1.429c2.82 2.474 7.009 2.106 10.341 3.535 0.496 0.474 0.782 1.128 1.151 1.715 0 0-21.536 4.444-44.445 13.138-1.835 0.346-3.723 0.466-5.347 1.466-47.694 9.424-58.176 20.731-70.443 39.286-0.151 1.145-0.347 47.63-0.331 49.687-0.051 3.717 5.208 16.924 5.618 17.929 1.955 6.648 2.993 13.499 4.204 20.305 0.722-0.053 2.166-0.173 2.888-0.233 3.924-1.77 4.06-12.318 4.272-13.319 0.459-2.474 1.068-5.309-0.421-7.543-1.127-1.804-5.128-13.882-6.475-16.364-1.08-41.283 0.386-36.706 11.484-61.193 0.557-1.654 2.219-2.474 3.881-2.406 0.278 0.429 0.82 1.286 1.09 1.722 0.722-0.015 2.166-0.038 2.888-0.053 1.827-2.023 3.031-4.55 5.001-6.452 4.144-3.948 9.107-7.069 12.627-11.649 2.888-0.226 6.137-0.113 8.506 1.79 0.541 1.534 0.158 3.249 0.218 4.858 2.64 0.045 5.309-0.278 7.942 0.12 0.699 0.662 1.241 1.466 1.805 2.264 0.218 1.97 0.677 3.903 0.993 5.866 1.369-8e-3 2.737-8e-3 4.121-8e-3 0.557 0.609 1.113 1.226 1.685 1.85 0.023 0.805 0.06 1.624 0.098 2.452 1.098 0.263 2.211 1.143 3.392 0.82 2.467-3.174 3.956-6.979 5.52-10.641 2.371-5.43 15.429-15.048 18.741-18.658 1.557-1.812 4.053-2.294 5.798-3.873 2.91-2.557 6.061-4.941 9.671-6.415 2.617-0.444 3.896 2.294 3.377 4.52 1.873 0.692 3.738 1.406 5.512 2.339-5.97 12.049-3.981 3.886-4.723 11.266 2.504-0.722 4.979-1.587 7.581-1.91 0.032 11.119-0.955 3.03-2.572 14.574-1.098 1.97-2.459 3.858-2.234 6.265 5.86 0.977 9.749-24.709 20.801-36.662 2.188-1.985 4.896-8e-3 7.408-0.218 0-1.354 0.023-2.677 0.03-4.016 3.429-3.662 7.761-6.287 12.025-8.852 1.196-0.609 0.609-2.173 0.76-3.211-4.023 0.09-8.032-0.256-11.995-0.925-1.479 0.983-2.863 2.133-4.442 2.938m179.45 30.555c-0.023 0.632-0.038 1.263-0.045 1.91 3.993 1.873 8.528 2.076 12.506 4.031 4.069-0.895 5.61-5.106 8.701-7.4 1.579-1.241 3.489-2.534 3.016-4.821-8.513-0.195-16.169 4.047-24.178 6.28m-572.23 35.963c-0.113 3.174-0.241 6.422 0.925 9.438 1.587 0.782 3.309 1.135 5.084 1.045 0.917-1.301 1.873-2.572 2.873-3.805 0.105-1.918 0.12-3.828 0.038-5.731-0.421-0.233-1.248-0.699-1.67-0.933-2.414-0.164-4.835-0.164-7.25-0.014m24.946 3.053c-0.113 0.669-0.331 2.016-0.436 2.692 2.564 0.248 3.971 2.565 6.227 3.437 2.061 1.632 4.008 3.392 6.069 5.024 1.331 1.008 3.249 1.256 4.181 2.775 0.328 2.907-0.147 13.603 3.775 16.462 0.075 0.805 0.158 1.624 0.241 2.452 0.647 0.669 1.301 1.354 1.955 2.046 0.76-0.88 2.219-1.602 1.88-3.001 0.068-2.662-0.429-5.37 0.128-7.994 0.933-1.632 2.346-2.918 3.67-4.219 1.557-0.105 3.128-0.241 4.618-0.73 0-1.474 0.015-2.925 0.075-4.377 3.362-2.835 6.099-6.385 9.573-9.137 18.699-4.702 8.976-0.474 21.245-4.768-0.075-0.383-0.218-1.166-0.286-1.549-11.378-0.075-22.779 0.451-34.143-0.113 1.023 0.241 2.061 0.496 3.091 0.76-6.092 0.767-12.236 1.346-18.395 0.707-0.624-0.707-1.256-1.414-1.88-2.106-3.963-0.248-7.655 1.451-11.588 1.639m434.93 11.89c0.045 0.549 0.128 1.639 0.166 2.188l0.541 0.489c3.632 0.82 6.919 3.023 10.762 2.782 0.564-0.624 1.136-1.233 1.707-1.842 0-1.497 8e-3 -2.986 0.023-4.46-4.416-0.142-8.86-0.097-13.199 0.843m-372.55 6.069c-0.308 0.587-0.587 1.181-0.842 1.805 4.844 13.695 6.848 9.671 9.07 13.243-0.316 5.121 1.06 10.138 0.918 15.274 2.241 2.549 3.083 6.084 2.858 9.431 0.82 1.406 1.805 2.7 2.873 3.933 3.639-0.693 2.102-2.663 0.775-5.565-1.406-2.339-0.842-5.896-3.881-6.964 0.226-1.572 0.76-3.053 1.512-4.437 0.554-3.048 0.74-2.314 0.963-5.505 0.504-0.609 1.008-1.211 1.527-1.797 1.527 0.015 3.053 0.038 4.587 0.09 3.346-3.317 1.3-8.515 7.964-9.13-0.241-2.775 0.722-5.4 0.993-8.115-0.669-0.444-1.324-0.88-1.978-1.316-7.152-0.286-14.387 0.504-21.463-0.827-1.95-0.248-3.92-0.143-5.876-0.12m37.58 3.166c-8e-3 1.105-8e-3 2.211 8e-3 3.331 2.241 1.722 4.114 3.85 6.219 5.731 2.346 2.113 5.708 0.504 8.415 1.459 4.775 3.933 8.039 9.528 10.153 15.221-0.526 6.129 2.956 11.897 7.979 15.199 2.369 0.113 5.039 0.406 6.716-1.662-0.068-2.452 0.406-5.054-0.639-7.355-0.226-2.73-0.113-5.467 0.038-8.19 1.925 0.083 4.264-0.451 5.655 1.271 1.015 1.436 4.317 1.572 4.038-0.737-0.173-3.617-0.158-7.52 2.557-10.295 1.978-0.399 3.384 1.226 5.084 1.873 0.917-0.113 1.827-0.369 2.745-0.542 0.451-1.632 0.572-3.753 2.256-4.633-0.038-0.782 0.135-1.542 0.15-2.294-12.491-3.79-11.1-1.897-17.56-2.685-6.249-0.782-12.416-2.692-18.771-2.076 1.181-0.203 2.369-0.399 3.565-0.579l-0.046-0.157c-28.255-3.364-14.352-2.983-28.562-2.88m267.85 6.941c3.722 5.345 10.588 4.66 13.838 5.934 0.94 1.286 1.993 2.489 3.121 3.625 0.038 0.895 0.083 1.805 0.135 2.722-9.714 5.221-24.223 2.919-30.029 4.881-0.023 1.143-0.045 2.301-0.053 3.467 3.098 0.286 7.077-0.594 9.055 2.504-0.06 2.843 8e-3 5.701 0.015 8.558 0.384 0.226 1.151 0.684 1.534 0.91 2.128-0.015 4.264-0.18 6.385 0.098 2.128 2.061 1.639 5.249 2.271 7.896 0.639 2.128-1.008 3.88-2.023 5.565-1.06 1.301-0.639 3.083-0.812 4.633 2.346 0.963 6.242 8e-3 6.889 3.226-0.925 5.618-1.421 11.408-3.535 16.763-0.609 1.09-0.421 4.076 1.376 3.279 2.166-2.091 4.467-4.264 5.054-7.355 3.053-6.187 8.46-33.421 5.332-39.602-0.128-2.7-0.624-5.956 1.677-7.942 1.685-0.165 3.392-8e-3 5.091-0.128 1.482-1.015 0.496-3.204 0.85-4.715 0.714-4.452 0.113-9.137 2.414-13.198-7.806-2.128-16.064-0.684-23.967-2.181-1.543 0.12-3.859-0.775-4.618 1.06m71.744 0.888c-1.428 3.054 5e-3 7.463 0.391 9.017 1.083-0.263 2.038-0.902 2.173-2.091 0.745-2.226 1.497-4.467 1.767-6.806-1.451-0.045-2.895-0.09-4.331-0.12m-263.98 9.227c1.406 1.617 3.459 2.234 5.317 3.159 2.173 3.963 3.016 8.49 3.625 12.928 1.925-8e-3 3.858-0.218 5.791-0.053 3.437 1.903 4.008 6.076 5.392 9.401 0.346 3.121 2.85 5.588 2.572 8.829 1.649 10.385 0.136 24.368 1.549 27.758 0.12 1.534 0.083 3.144 0.752 4.587 0.113 1.226 0.203 2.467 0.316 3.715 2.345 5.996 0.54 9.107 1.331 25.945 1.76 3.097 13.478 16.484 21.313 17.613-8.394-28.221-9.085-69.041-16.003-88.665-0.519-4.595-2.64-8.882-2.625-13.552-0.233 1.519-0.414 3.046-0.602 4.58 0.03-1.624 0.098-3.241 0.188-4.851-5.869-6.229-17.868-13.721-26.885-15.906-2.844-0.79-1.813 2.895-2.031 4.512m137.54 11.521c-1.5 0.361-25.147 4.051-43.46 10.762-1.001 0.249-9.803 2.096-12.078 4.023-1.001 0.54-13.82 18.177-17.086 26.254-2.106 2.798-2.422 6.55-5.054 9.024-0.995 23.569-2.04 15.871 2.595 34.368 0.722 7.362 2.805 14.597 5.761 21.343 0.557 4.55 2.775 8.626 3.64 13.108 2.128 4.204 2.67 8.934 4.64 13.206 0.677 4.678 3.128 8.746 4.392 13.251 1.888 3.617 1.068 8.002 3.053 11.604 1.271 2.294 1.391 4.971 2.286 7.4 1.436 0.038 2.865 0.075 4.309 0.12 2.844-3.853 8.179-15.711 7.092-21.365-3.444-2.813-3.166-7.754-5.362-11.341-0.97-1.624-0.985-3.542-1.572-5.279-8.382-18.135-20.881-41.134-16.898-47.018 2.643-6.145 1.177 2.282 0.82-13.101 0.09-3.316-0.196-6.648 0.12-9.949 1.218-1.083 2.835-1.466 4.362-1.873 2.492-3.085 3.981-8.008 3.768-11.454-0.707-1.166-0.955-2.549-0.218-3.753 1.782-4.008 1.767-8.603 3.911-12.461 1.173-0.015 2.354 0 3.527-0.143 2.549-1.737 1.873-5.4 3.813-7.603 2.369-3.407 7.084-1.888 10.581-2.106 2.933 2.008 5.287 4.618 7.017 7.716 1.579 0.241 2.835-0.887 4.099-1.617 1.143 0.534 2.534 0.797 3.362 1.85 0.241 3.377-0.135 6.836 1.068 10.092 3.459 0.835 6.61-1.181 10.062-0.782 4.625 4.25 4.039 4.97 3.941 10.882 2.399 0.797 4.986 0.775 7.483 0.511 1.893-1.313 0.027-2.431 0.053-16.59 2.128-0.188 4.475 0.594 6.453-0.233 1.662-6.543-1.284-6.666-0.278-19.042 2.595-0.211 5.693-0.18 7.453-2.444 4.737-6.738 5.296-8.529 3.738-10.747-7.383-0.583-14.181 2.628-21.393 3.387m241.36 46.236c-1.692 0.323-3.76-0.384-5.054 1.045-0.181 1.121 0.068 2.136 0.737 3.061-0.135 0.143-0.414 0.429-0.549 0.572-4.648-0.068-75.002-7.591-94.433 0.737-1.248 0.105-2.474 0.233-3.7 0.346 0.692 0.316 1.391 0.639 2.091 0.978 5.317 0.346 10.649 0 15.973 0.173 1.324 0.955 2.617 2.399 4.422 2.249 5.167 0.135 10.498-0.481 15.469 1.309 2.437 0.842 3.963 3.339 6.641 3.655 3.738 0.519 7.543 0.12 11.311 0.15 1.316 1.226 1.955 3.046 3.271 4.249 3.723 1.67 7.513 3.85 11.747 3.58 0.918-1.88 1.888-3.941 4.129-4.475 6.66 0.408 7.89-15.199 20.29-4.715 1.512 0.384 3.038 0.752 4.572 1.105 0.745 1.76 1.812 3.399 3.64 4.196 1.654-0.015 3.317 0.045 4.978 0.128 0.248 0.384 0.752 1.166 1.008 1.557 1.218-8e-3 2.444 8e-3 3.685 0.023-0.564-18.662-0.851-1.65-1.482-20.568-2.94-0.152-5.851 0.216-8.746 0.645m-536.25 19.004c-4.347 0.158-8.498 2.211-12.897 1.482-6.126-5.119-23.92 2.103-36.85 1.519-0.753-2.35 0.147-3.432-10.19-0.767 0.038 0.353 0.128 1.045 0.165 1.391 2.444 2.331 5.926 3.467 7.761 6.43 2.795 4.558 5.535 0.86 6.535 12.627 1.73 0.211 3.414-0.211 4.948-0.978 1.775-0.955 3.835-0.414 5.746-0.369 0.993-2.655 0.767-5.58 1.564-8.295 1.399-0.241 2.783-0.564 4.129-1 1.008-1.557 2.106-3.046 3.226-4.512 5.151-0.684 10.371 3.294 11.318 8.37 2.978-0.09 6.392-0.451 8.453 2.211 0.624 0.038 1.873 0.105 2.504 0.143 0.714-0.812 1.549-1.504 2.407-2.151 0.541-1.444 0.188-3.038 0.241-4.527 4.745-1.827 9.972-1.459 14.687-3.354 0.346-0.647 0.692-1.278 1.045-1.903 6.273-1.857 30.119-5.783 31.119-5.738 1.873-0.654 3.88-0.451 5.828-0.617-0.03-0.399-0.083-1.196-0.113-1.594-1.948 0.06-3.896 0.075-5.836-0.045 2.504-0.481 5.069-0.436 7.611-0.602-60.313-0.088-28.1-0.255-53.401 2.279m-84.687-2.535c-2.777 6.953 1.567 9.406 1.73 12.74 0.466 1.955 0.233 4.106 1.248 5.904 2.752 0.541 3.362-2.58 4.67-4.234 0.598-4.326-0.498-4.627 5.046-5.949 1.421-1.421 2.098-3.264 2.061-5.264-4.798-1.474-9.731-2.843-14.755-3.197m577.97 9.972c-1.842 0.053-2.895 1.858-4.55 2.384-2.294 0.639-4.685 0.662-7.039 0.88 0.301 2.986 2.03 5.565 2.474 8.513 0.316 0.278 0.948 0.82 1.263 1.09 1.707 0.203 3.775-0.466 5.174 0.812 1.685 2.933 3.286 5.934 4.806 8.972 0.654 0.015 1.309 0.045 1.978 0.083 1.203-3.527 0.654-7.257 1.038-10.882 1.7-2.903 2.391-6.242 4.008-9.175 2.831-5.159-4.748-3.224-9.152-2.677m-66.164 11.544c-10.362 3.869-51.275-3.826-67.571 7.137-1.339 0.293-2.632 0.715-3.888 1.233 4.593 1.547 9.788-0.478 23.396-1.752 2.828-0.391 4.67 2.647 7.475 2.354 17.228 0.286 14.626-1.16 19.801 4.377 5.099 0.323 10.205-0.248 15.312-0.105-0.015 1.722-0.023 3.459-0.023 5.204 2.053 0 4.106 0.218 6.054 0.948-0.023 0.361-0.06 1.098-0.075 1.466-4.335 1.551-8.838 2.67-4.384 4.467 7.128 0.399 6.349 3.248 9.355 8.761 2.858 2.249 6.016 5.106 9.942 4.73 1.053 1.075 2.339 2.038 3.008 3.437 1.173 6.039 0.639 12.206 1.745 18.252 3.053 1.587 6.437 0.624 9.619 0.03 0.489-0.414 0.985-0.82 1.497-1.211 0-4.572-2.083-8.784-3.512-13.025-5.685-7.475-9.077-16.861-16.733-22.742-0.083-0.677-0.248-2.023-0.323-2.7 2.083-0.023 4.181-0.023 6.28-0.023-0.423-4.114 1.37 0.337-5.234-13.003-0.84-8.145 3.502-8.853-11.741-7.835m-430.66 0.241c-0.023 2.888 0.165 5.768 8e-3 8.656 1.609 0.684 3.301 1.196 4.918 1.88 1.03 2.016 1 4.377 1.203 6.588 1.624-0.068 3.249-0.15 4.873-0.293 1.782-1.369 4.046-2.241 5.242-4.241 1.519-2.677 3.362-5.46 2.963-8.686-2.587-1-5.407-0.669-8.092-1.143-3.828-0.392-7.4-1.896-11.115-2.761m71.18 5.55c-3.467-0.12-7.069 0.459-10.348-0.978-1.745-0.82-3.61-0.316-5.309 0.323-0.06 2.354 2.489 3.234 3.241 5.227 0.722 1.888 1.278 3.843 2.234 5.648 0.075 2.128 0.068 4.272 0.045 6.407 2.279 0.038 4.565-0.015 6.851-0.098 0.127 7.603-0.74 22.51 0.782 26.427 0.902-0.053 1.805-0.083 2.715-0.105 0.429-0.233 1.301-0.707 1.737-0.94 0.444-3.362-1.414-6.543-0.729-9.889 0.459-2.173 0.85-4.354 1.121-6.55 0.233 7e-3 0.684 0.015 0.917 0.022-0.278-1.985 1.632-3.031 2.692-4.362 1.685-0.03 3.377-0.015 5.069 0.038 1.278-2.85-0.113-6.152 1.369-8.912 0.835-1.617 1.188-3.519 2.369-4.911 2.046 0.038 4.031 0.632 6.061 0.895-0.023 0.218-0.06 0.662-0.075 0.887 2.692-2.534 2.098-6.362 2.151-9.686-5.565-2.727-21.015 0.697-22.893 0.557m38.723 2.888c0.474 0.218 1.414 0.639 1.888 0.85 1.263-0.609 2.647-0.827 4.038-0.835 1.542 2.632 2.707 5.467 3.256 8.483 0.714-0.038 1.436-0.075 2.166-0.105 10.538-5.698 5.669 15.702 6.016 20.117 1.248 0.827 2.467 1.707 3.662 2.632-0.023 1.88 0.835 3.542 1.782 5.114 1.09-0.023 2.196-0.03 3.301-0.038-0.143-2.218 1.263-3.707 3.083-4.715 0.338-0.985 0.684-1.97 1.03-2.94 2.309 0.105 4.572 0.647 6.851 1.083 1.151-4.317 1.128-8.979 3.67-12.837 4.351-2.348 3.256-1.794 7.129-0.707 3.805-8.406 9.116-4.865 13.131-8.551-0.06-1.105-0.113-2.211-0.165-3.294-18.651-6.525-16.23-5.158-36.346-6.445-3.594-1.456-21.901-1.417-24.374-1.384-0.043 1.18-0.081 2.376-0.118 3.572m65.465 6.896c0.023 0.91 0.053 1.828 0.083 2.753 2.564 1.489 3.068 4.663 5.332 6.43 0.511-8e-3 1.542-0.038 2.053-0.053 1.03 1.091 2.076 2.181 3.159 3.241 0.038 2.234-0.466 4.414-1.023 6.565 2.256-0.135 4.467-0.557 6.678-0.985 0.752 1.482 1.587 2.933 2.534 4.309 0.083 2.316 0.068 4.64 0.023 6.964 2.437 1.331 5.272 0.932 7.874 0.383 7.169 0.488 5.013 4.536 5.49 14.138l0.918-0.399c-2.384 1.948-2.534 5.159-2.662 8.002 2.557 1.053 5.362 0.248 8.024 0.692 1.624 1.79 3.016 3.82 4.166 5.956 2.138 20.393-2.127 13.808-3.835 22.426-6.018 8.024-5.016 24.895-4.986 27.555 0.015 2.527 1.632 4.632 3.016 6.61-0.895 4.354 2.632 7.558 3.241 11.627 4.308 5.978 15.361 14.494 18.763 14.529-0.286 0.165-0.865 0.504-1.158 0.669 2.151 1.098 4.55 1.918 6.791 0.504 2.247-15.498-1.722-13.701-2.061-23.418-0.033-2.471-0.704-7.151-2.173-10.544-0.03-4.046-1.105-7.987-1-12.04-0.872-2.467-1.128-5.084-1.955-7.551-0.113-4.159-0.948-8.235-1.083-12.378-2.262-5.32-14.394-56.989-28.216-64.75-14.14-7.813-19.37-11.385-27.993-11.235m198.76 19.696c-0.421 1.136-0.775 2.316-1.384 3.384 0 0-18.494 0.261-36.842 5.941-25.061 3.17-28.081 3.177-58.163 17.748-5.454 4.314-22.205 28.365-23.035 29.367-4.527 17.419-2.023 12.59-1.151 37.068 0.075 7.708 3.046 14.981 3.896 22.591 0.218 1.09 1.075 2.925 2.474 2.354 2.294-0.88 5.257 0.368 7.182-1.226 0.06-3.347-1.985-6.242-2.895-9.363-0.444-3.535 0.256-7.129-0.459-10.634-0.526-2.309-0.504-4.685-0.534-7.024 2.091-0.91 4.377-0.88 6.61-0.933-0.023-3.023 3.505-2.579 4.881-4.55-1.131-12.532-0.835-14.687-0.835-14.687 1.188-2.158 3.211-3.61 5.385-4.663 2.482-1.767 6.107 0.459 8.107-2.309 0.129-3.347-1.346-4.943 5.024-10.175 2.008-1.436 4.61-0.985 6.934-1.068 0.211-0.466 0.624-1.391 0.835-1.858-0.03-2.602-0.015-5.196 0.098-7.784 2.519-4.136 6.716-7.227 11.574-7.859 1.888-0.331 3.392 1.045 4.994 1.805 3.164 8.481 6.673 5.104 9.784 9.596 1.309-0.038 2.64-0.173 3.805-0.842 2.061-1.075 4.46-0.571 6.701-0.677 0.459-0.564 0.933-1.106 1.414-1.64-0.699-1.226-0.835-2.617-0.865-3.986-0.256 1.504-0.496 3.023-0.729 4.542 0.323-3.301 0.188-6.603-0.481-9.837 0.775-1.406 1.85-2.625 2.587-4.046 0.211-1.745 0.06-3.512 0.075-5.249 2.136-1.482 4.753-2.226 6.61-4.099 2.956-2.79 7.302-3.482 10.13-6.445 3.757-3.942 3.123-7.025 11.025-5.024 2.647 1.955 4.099 4.918 6.264 7.302 1.639-0.038 3.286-0.09 4.933 0.113 3.279 2.188 1.248 7.099 3.753 9.904 1.436 0.782 3.151 0.902 4.745 1.286 1.143 1.542 2.361 3.046 3.67 4.467 2.587 4.843-0.82 9.912 0.248 14.951 0.767 1.128 2.234 0.692 3.377 0.91 1.7-0.113 3.076 0.985 4.144 2.188 0.609 4.392 0.887 8.806 1.662 13.183 0.338 0.248 1.015 0.737 1.354 0.985 1.692 0.09 3.512 0.098 4.933 1.181 2.897 3.823 1.784 7.193 0.158 19.643-1.346 2.587-1.579 5.663-3.324 8.054-3.437 12.687-4.228 7.73-4.069 15.026 2.091 0.053 3.384-1.647 4.738-2.963 5.13-5.298 3.863-10.375 6.272-15.056 2.384-5.136 1.985-10.935 1.587-16.417-1.249-3.153 1.99-12.69-1-17.011-0.63-1-13.178-23.139-16.996-26.381 0.023-0.647 0.068-1.925 0.09-2.565 0.436-0.263 1.324-0.797 1.767-1.06 0.043-3.831-2.206-3.329-6.317-14.544-0.256 0.707-0.504 1.429-0.745 2.158 0.083-0.857 0.173-1.7 0.271-2.534-0.376-0.135-1.128-0.406-1.497-0.541 1.512-1.188-1.226-2.316-1.76-3.384 0.038-1.94 0.038-3.865 0-5.783-0.557-0.534-1.106-1.053-1.647-1.564-3.122-0.214-6.242-0.139-9.363 0.034m-34.166 127.88c-1.925 6.663-8.588 10.265-11.235 16.552-1.045 3.031-3.234 5.505-4.091 8.618-1.903 2.166-2.474 5.046-3.813 7.528-0.767 1.324-0.459 2.895-0.496 4.354 5.994-0.361 9.604-5.783 13.544-9.603 3.241-5.497 7.716-10.205 10.724-15.823-0.165-5.234 1.489-10.423 0.549-15.642-2.707-0.978-3.557 2.587-5.182 4.016m-67.57 35.007c-0.284 8.879 1.105 1.776 5.121 26.148 0.361 2.106-0.399 4.527 1.008 6.377 2.873 5.512 3.79 11.882 6.904 17.304 2.655 0.699 5.159-0.91 6.325-3.249 5.195-13.835 3.308-5.262 1.624-22.93-1.563-2.425-14.246-17.033-16.831-21.546-1.414-0.668-2.79-1.375-4.151-2.104m50.507 21.779c-3.835 4.573-7.265 9.491-11.393 13.807-0.015 0.459-0.038 1.376-0.053 1.835-0.85 1.527-1.797 2.993-2.933 4.332-0.098 2.076-0.098 4.166-0.068 6.264-10.218 12.476-19.753 18.389-16.778 33.766 0 1e-3 1.82 30.886 1.82 30.886 1.226 6.979 0.496 14.123 0.88 21.185 0.323 0.293 0.97 0.88 1.301 1.173 0 1.572-0.075 3.211 0.572 4.708 1.271 4.399 0.82 8.987 1.151 13.499 0.242 1 1.58 14.379 4.076 20.38 1.331 3.219 1.339 6.814 2.76 10.01 0.073 0.155 7.572 26.768 8.4 28.495 2.806 6.089 1.592 27.237 5.791 30.375 4.046 0.508 5.501-10.411 12.394-20.598 0.286-1.113 0.587-2.219 0.933-3.286 0 0-9.313-16.958-14.905-29.112-1.721-3.526-5.365-20.571-6.746-23.396 0.24-19.036 0.341-22.519 8.265-30.495 2.722-0.098 5.64 0.451 8.13-0.948-0.542-5.016 0.639-10.416 4.264-14.071 0.444-2.76 2.151-5.016 3.625-7.302 5.138-7.85 7.801-6.081 12.318-6.234 4.204-3.256 5.52-8.761 8.099-13.138 3.159-2.888 5.347-7.242 9.634-8.588 12.474 0.188 11.174-9.265 25.502-14.935 5.37-2.775 9.205-8.22 15.176-9.874 8.064-0.867 11.701-8.343 14.582-9.942 1.579-1 3.632-1.241 4.896-2.707 3.264-3.399 6.084-8.115 11.288-8.513 7.423-0.135 13.251-5.001 19.388-8.475 1.286-0.857 2.843-1.767 2.993-3.474-7.423 0.083-14.838-0.346-22.253-0.105 4.054 0.271 8.257-0.572 12.206 0.617-2.587 0.12-5.151 0.481-7.723 0.714-2.053 0.195-4.399-0.369-6.129 1.03-5.989 4.298-21.055 4.57-28.412 4.068-2.015-2.309-5.392-0.662-8.009-1.406-6.528-2.008-13.401-2.609-19.824-4.941-5.227 0.82-10.882 1.113-15.74-1.414-23.854-2.712-2.543-2.261-27.908-2.452-1.722-0.053-3.572 0.143-5.076-0.842-1.937-1.295-4.313-0.874-6.494-0.896m-259 94.621c-6.894 1.227-12.273 3.531-25.073 3.993-1.166-0.03-2.226 0.511-3.294 0.917-0.654 3.956-1.151 8.22-3.813 11.423-0.513 4.359-7.301 26.162 0.241 38.166 0.526 0.06 1.579 0.173 2.106 0.233-0.263-26.022 4.904-27.676 12.033-37.053 3.127-4.092 8.183-3.049 14.417-11.378 2.158-2.797 6.182-0.188 8.882-1.903 2.579-1.512 6.257-1.88 8.483 0.444 0.812 0.03 1.624 0.068 2.444 0.128 0.286 1.218 1.098 2.196 1.888 3.158 26.69-3.262 21.718-7.778 43.912-6.971-1.286-0.173-2.564-0.316-3.843-0.444 0.444-0.15 1.324-0.436 1.767-0.579-0.549-1.346-2.031-1.481-3.189-1.963-7.259-0.051-49.697-0.577-56.961 1.829m315.98 18.448c1.083 0.94 2.151 1.918 3.211 2.91 1.391 0.037 2.775 0.075 4.181 0.128 0.195-0.436 0.602-1.301 0.797-1.737-0.158-3.151 0.963-6.167 0.872-9.295-0.481-0.301-1.436-0.895-1.918-1.196-3.631 1.67-7.331 4.821-7.143 9.19m-229.7 11.717c-7.573 1.038-15.206 1.068-22.847 1.166-1.173 0.767-2.339 1.542-3.489 2.361 2.452 3.369 5.806 5.866 8.671 8.837-0.384 5.061-5.362 8.979-4.565 14.281 1.474-0.023 2.948-0.038 4.422-0.045 1.06 3.204 0.955 7.287-1.331 9.949-0.466 1.557-0.948 3.121-1.549 4.648-0.128 1.436-0.218 2.873-0.278 4.347 2.662 0.037 5.324 0.075 7.987 0.12 1.797-4.61 4.076-9.062 5.257-13.883 2.346 0.316 4.79 1.414 7.129 0.639 0.669-1.263 0.135-2.722-0.376-3.903-0.06-1.098-0.09-2.173-0.113-3.241 0.556-0.85 1.113-1.685 1.67-2.512 2.331-0.023 4.663-0.045 6.994-0.098 1.413-10.195 7.338-3.658 10.664-5.888 1.143 0.707 2.188 1.579 3.106 2.587 0.135 2.865 1.038 5.64 0.955 8.536 0.406 0.579 0.82 1.181 1.233 1.797 1.594-0.782 2.986-1.873 4.121-3.226 1.226-0.038 2.459-0.038 3.693-0.015 1.903 4.595-1.654 9.054-1.527 13.717 0.677 1.113 2.309 0.391 3.399 0.609 0.737-1.105 1.767-1.858 3.181-1.587 3.468 2.875 2.219 21.204 3.918 25.035 0.722-0.06 1.459-0.105 2.196-0.128 1.549-1.745 3.106-3.49 4.655-5.234-0.579-2.068-1.083-4.181-0.91-6.34 1.85-2.151 2.978-4.775 4.617-7.069 2.324 0.053 4.648 0.023 6.971-0.105-0.94 0.083-1.888 0.158-2.82 0.271v0.654c1.316-0.038 2.632-0.06 3.956-0.06 0.278-0.902 0.526-1.805 0.76-2.7-0.241-2.534-2.715-4.482-2.234-7.122 1.384-2.301 4.505-1.985 6.821-2.271 2.677-2.369 4.918-5.182 7.648-7.483 1.121 0 2.241 8e-3 3.369 0.022 0.399 0.248 1.188 0.737 1.587 0.985 0.075 0.474 0.226 1.414 0.301 1.888 2.482 7e-3 4.971 0.211 7.37 0.91 0.429 0.489 0.857 0.993 1.293 1.512 0.286 1.617 0.564 3.399 1.91 4.542 1.444 0.022 2.414-1.173 3.151-2.249 6.121-0.373 4.624 3.042 7.641 4.828 0.173 2.422 0.195 4.896 0.985 7.235 2.504-0.12 5.136 0.399 7.535-0.542 0.233 0.12 0.707 0.369 0.948 0.489 1.369 0.165 3.144-0.384 4.106 0.932 1.414 1.722 1.278 4.159 1.797 6.234 1.993 3.454-6.071 6.673-4.377 11.326 2.677 1.256 5.242-0.91 7.836-1.309 1.742-0.272 4.611 9.865 4.753 13.168 0.173 2.594-0.594 5.121-0.79 7.693-0.797 1.279-1.624 2.534-2.467 3.798 2.361 1.67 5.437 0.542 8.13 0.872 2.948 0.557 5.385-1.79 8.325-1.309 1.11 4.571 3.014 7.97 1.278 14.537-1.005 15.571-3.061 7.684-3.444 17.274-3.679 3.798-1.296 6.177-6.708 21.982-2.263 3.312-1.272 4.281-4.948 11.078-0.09 0.797-0.165 1.617-0.248 2.444-7.274 12.123-1.443 16.677 0.752 20.583 2.331 4.392 8.13 4.166 11.408 7.513 4.986 5.377 12.379 7.355 17.741 12.251 4.758-1.65-0.637-15.01-0.609-21.741-0.828-3.165-1.378-21.492-1.466-22.493-0.431-1-4.551-61.786-9.16-71.052-1.279-2.575-4.818-20.399-5.633-22.17-1.73-3.843-1.09-8.31-3.001-12.085-1.248-3.369-0.948-6.986-1.105-10.498-2.693-0.521-8.213-6.899-9.115-9.401-4.803-7.143-28.77-14.809-50.206-23.975-2.715-1.314-60.109-4.469-70.924-1.916m232.8 1.902c-1.985 2.391-3.88 4.881-6.227 6.949 0.701 9.817 4.218-0.887-27.088 43.911-1.692 2.391-2.474 5.257-3.903 7.806 6.313 0.208 29.526-30.95 39.407-41.054 0.203-3.061-0.165-6.257 1.331-9.047 0.083-3.204 0.587-6.34 1.121-9.476-1.558 0.099-3.475-0.442-4.641 0.911m31.503 77.979c-1.542 1.181-1.579 3.016-1.361 4.798-9.837 3.1-19.669-4.778-25.426-1.587-0.745 1.632-2.211 2.775-3.67 3.745-1 0.321-11.745 2.701-14.138-0.083-0.406-0.045-1.226-0.12-1.639-0.165-0.541-3.128-4.58-2.143-6.866-2.181-7.313 3.504-3.047 4.192-13.07 4.648 0.045-2.376 0.301-4.798-0.451-7.077-4.685-0.474-7.671 3.632-10.732 6.483-1.753 11.972-12.027 14.714-11.371 19.606-0.263-0.481-0.519-0.94-0.767-1.384 0.325 2.809-2.547 27.265 0.955 52.74 2.369 5.279 0.767 11.19 1.188 16.778 1.993 1.67 4.196 3.068 6.332 4.565 1.406 0 2.88 0.256 4.264-0.196 0.832-8.758-3.352-16.954 2.121-21.764 4.58-3.738 10.724-4.843 16.507-4.452 1.594-2.993 0.308-6.52 1.707-9.521 0.933-2.188 1.038-4.64 2.128-6.761 4.002-8.172 12.809-7.257 16.342-11.717 2.602-2.489 3.843-5.926 5.287-9.13 0.316-2.181 0.03-4.467 0.948-6.52 2.782-1.294 7.016-0.226 8.573-3.407 9.039-11.905 13.487-19.408 21.493-17.447 0.323 1.158 0.474 2.354 0.436 3.61-0.775 0.639-1.534 1.309-2.301 1.97-0.128 1.391-0.233 2.805-0.338 4.226 1.797 1.241 4.001-0.993 5.497 0.812-0.33 4.71-2.573 2.924-2.512 11.371 5.204 0.158 7.49-5.302 8.28-9.596 0.263-3.354 2.166-6.204 3.64-9.122 1.955-2.437 4.948-3.7 7.648-5.144 0.068-0.895 0.135-1.775 0.226-2.64-5.912-2.878-12.425-4.616-18.93-5.458m-289.56 6.746c8e-3 1.79 0.038 3.595 0.12 5.407 6.956 10.856 6.122 11.547 14.447 18.771 1.038 0.023 2.076 0.045 3.128 0.098-1.888-4.369-5.934-7.287-8.506-11.198-0.797-1.955-1.241-4.076-2.865-5.55-0.135-3.106-2.504-5.106-4.362-7.287-0.661-0.098-1.308-0.181-1.962-0.241m-41.22 14.838c3.753 1.812 7.641 3.911 11.957 3.444 0.045-0.436 0.143-1.301 0.188-1.737-6.943-2.109-3.823-1.659-10.513-2.85-0.406 0.285-1.226 0.857-1.632 1.143m509.79 27.494c-0.015 0.745-0.023 1.504-0.015 2.271 2.76-0.023 5.467-0.647 8.205-0.978 0.083-0.361 0.241-1.075 0.323-1.436-2.842 0.015-5.678 0.053-8.513 0.143m-103.55 23.938c-3.267 3.599-16.312 28.107-31.187 40.888-8e-3 0.827-0.015 2.489-0.015 3.316 2.346-0.88 4.467-2.249 6.4-3.82 24.102-19.521 11.763-7.896 26.75-30.879 1.218-3.068 1.03-6.43 1.03-9.656-0.744 0.038-2.233 0.113-2.978 0.151m-76.212 14.401c-1.271 1.474-2.489 3.053-3.046 4.964-1.038 3.339-2.986 6.287-4.317 9.506-0.09 1-0.18 1.993-0.256 3.023 4.136 0.932 8.378 1.497 12.627 1.166 0.308-0.88 0.624-1.737 0.963-2.572-1.594-13.505-2.115-8.147-3.986-15.996-0.669-0.046-1.33-0.076-1.985-0.091m0.173 54.267c-3.766 8.519-32.082 35.729-32.849 36.97 12.073-2.885 28.388-23.318 34.564-30.142 1.158-1.835 1.384-4.114 2.768-5.828 0.083-1.632 0.083-3.271 0.038-4.881-2.851-0.082-2.031 3.588-4.521 3.881m31.624 3.234c-7.776 2.128-13.289 8.348-19.831 12.672 0.053 0.654 0.128 1.331 0.218 2.015 5.593-0.519 20.195-8.591 25.035-11.83 0.391-0.113 1.173-0.323 1.557-0.436 0.271-0.338 0.812-1.023 1.083-1.361 0.038-0.775 0.09-1.534 0.15-2.279-2.753-1.609-5.558 0.452-8.212 1.219m-110.64 9.16c0 0.714 8e-3 1.459 0.023 2.219 0.323 0.278 0.97 0.842 1.293 1.121 0.01 3.899 2.074 3.843 4.136 12.341 1.651 2.861 11.04 38.999 11.243 40.678 0.654 0.549 1.309 1.105 1.978 1.692 0.729-0.023 1.474-0.023 2.219-8e-3 0.286-0.263 0.842-0.797 1.128-1.06 3.948-8.491 5.143-5.61 5.738-13.589 0.165-2.557 1.978-4.851 1.316-7.475-0.745-3.294-1.692-6.535-2.204-9.867-16.741-23.764-13.926-15.686-22.711-24.87-0.835-0.09-1.662-0.158-2.474-0.195-0.572-0.348-1.129-0.671-1.685-0.987m129.32 5.354c-0.023 1.579-0.038 3.181-0.06 4.783 2.354 1.263 5.129 1.82 7.693 0.797-0.053-0.805-0.09-1.594-0.128-2.369-1.03-1.203-2.061-2.406-3.098-3.58-0.932-0.361-1.85-0.692-2.752-1.03-0.564 0.452-1.121 0.91-1.655 1.399z"/>
</svg>