<?xml version='1.0' encoding='utf-8'?>
<svg xmlns="http://www.w3.org/2000/svg" xmlns:xlink="http://www.w3.org/1999/xlink" enable-background="new 0 0 36 38.9" version="1.1" viewBox="0 0 36 38.9">
<symbol id="u" viewBox="0 -8.751 15.166 8.751">
			<linearGradient id="l" x1="1378.6" x2="1383.5" y1="-17514" y2="-17514" gradientTransform="matrix(-.1562 -.9877 .9877 -.1562 17523 -1375)" gradientUnits="userSpaceOnUse">
			<stop stop-color="#C97900" offset="0"/>
			<stop stop-color="#f80" stop-opacity="0" offset="1"/>
		</linearGradient>
		<path d="m11-0.7c0.533 0 1.1-0.216 1.7-0.65 0.333-0.2 0.733-0.5 1.2-0.9 1.1-0.767 1.483-1.983 1.15-3.65-0.233-1.067-0.767-1.8-1.6-2.2-0.733-0.367-1.917-0.583-3.55-0.65-2.066-0.033-5.3 0.967-9.7 3-0.133 0.133-0.2 0.283-0.2 0.45 0.033 0.167 0.167 0.683 0.4 1.55 0.333 1.167 0.65 2.417 0.95 3.75 1.133 0 2.667-0.133 4.6-0.4 1.467-0.2 3.15-0.3 5.05-0.3z" clip-rule="evenodd" fill="url(#l)" fill-rule="evenodd"/>
</symbol>
<symbol id="v" viewBox="-0.016 -18.268 11.967 18.268">
		<path d="m11.95-2.3l-0.3-1.9c-0.066-0.533-0.3-1.7-0.7-3.5-0.3-1.433-0.45-2.517-0.45-3.25 0-0.667 0.033-1.683 0.1-3.05 0-1.133-0.167-1.883-0.5-2.25-0.367-0.333-1.033-0.6-2-0.8-0.067 0-0.917-0.1-2.55-0.3-1.5-0.367-2.667-0.633-3.5-0.8-1.5-0.267-2.183-0.083-2.05 0.55 1.333 5.667 2.017 8.583 2.05 8.75 0.133 0.5 0.633 1.5 1.5 3 0.8 1.4 1.233 2.383 1.3 2.95 0.133 0.867 0.483 1.833 1.05 2.9 0.6-0.4 1.367-0.75 2.3-1.05 0.933-0.267 2.183-0.683 3.75-1.25z" clip-rule="evenodd" fill="#E88B00" fill-rule="evenodd"/>
</symbol>
	<path d="m31.566 33.56c0.037 0.359 0.288 1.08 0.757 2.16-0.432 0.433-1.08 0.882-1.944 1.35-1.691 0.973-3.546 1.566-5.562 1.782-3.275 0.36-6.336 0.559-9.18 0.594-1.872 0-3.402-0.18-4.59-0.54-1.188-0.323-2.772-0.954-4.752-1.89-1.656-1.188-2.538-1.908-2.646-2.16-0.072-0.252 0.288-1.962 1.08-5.13 0.36-1.836 0.684-3.365 0.972-4.59 0.504-2.232 1.17-4.248 1.998-6.048 1.332-2.916 2.178-5.256 2.538-7.02-0.216-0.181 0.648-0.396 2.592-0.648 1.26-0.18 2.232-0.396 2.916-0.648 0.468-0.216 1.296-0.666 2.484-1.35 2.269-1.224 4.428-1.206 6.479 0.055 0.973 0.611 1.746 1.782 2.322 3.51 0.504 1.439 0.72 2.627 0.648 3.563-0.036 0.936 0.145 2.052 0.54 3.348l1.133 2.646c0.793 1.908 1.278 3.312 1.459 4.212 0.29 1.439 0.542 3.708 0.756 6.804z" clip-rule="evenodd" fill="#FFE03A" fill-rule="evenodd"/>
		<radialGradient id="m" cx="-8.2759" cy="-19.038" r="15.345" gradientTransform="matrix(-.9958 .418 .6718 1.6003 24.399 57.874)" gradientUnits="userSpaceOnUse">
		<stop stop-color="#f80" offset="0"/>
		<stop stop-color="#FFE03A" offset="1"/>
	</radialGradient>
	<path d="m7.7 19.088c1.224-2.736 2.016-4.896 2.376-6.479 0.864 0.972 2.069 1.691 3.617 2.16 2.088 0.576 3.996 1.26 5.725 2.052l0.27 6.642c0.072 0.647 0.504 1.728 1.296 3.239 0.9 1.729 1.422 2.845 1.566 3.349 0.287 0.936 0.197 2.124-0.271 3.563-0.432 1.332-1.044 2.395-1.836 3.187-0.611 0.611-1.691 0.917-3.24 0.917-1.835-0.071-3.203-0.09-4.104-0.054-1.296 0.072-3.078-0.252-5.346-0.972-2.231-0.684-3.6-1.296-4.104-1.836-0.072-0.252 0.288-1.962 1.08-5.13 0.36-1.836 0.684-3.365 0.972-4.59 0.505-2.233 1.171-4.248 1.999-6.048z" clip-rule="evenodd" fill="url(#m)" fill-rule="evenodd"/>
		<use transform="matrix(1.08 0 0 -1.08 4.8501 13.6)" x="-0.016" y="-18.268" width="11.967" height="18.268" enable-background="new" opacity=".3984" xlink:href="#v"/>
	<path d="m19.039 32.587h3.511c-0.36 1.765-1.063 3.168-2.106 4.213-0.611 0.611-1.691 0.917-3.24 0.917-1.835-0.071-3.203-0.09-4.104-0.054-1.296 0.072-3.078-0.252-5.346-0.972-2.231-0.684-3.6-1.296-4.104-1.836v-0.215c0.756-0.252 1.764-0.504 3.024-0.756 1.944-0.36 3.114-0.595 3.51-0.702 1.8-0.397 4.752-0.595 8.855-0.595z" clip-rule="evenodd" fill="#E88B00" fill-rule="evenodd"/>
	<path d="m30.812 26.756c0.288 1.439 0.54 3.708 0.755 6.804 0.037 0.359 0.288 1.08 0.757 2.16-0.432 0.433-1.08 0.882-1.944 1.35-1.691 0.973-3.546 1.566-5.562 1.782l-4.319 0.378c0.647-0.288 1.151-0.685 1.512-1.188 0.323-0.577 0.594-0.99 0.81-1.242 0.828-0.936 1.242-2.448 1.242-4.536 0-0.864-0.198-2.196-0.595-3.996-0.432-2.052-0.899-3.42-1.403-4.104-0.433-0.611-0.685-1.835-0.756-3.671 0.036-1.873 0.054-2.935 0.054-3.186 0-0.576 0.99-1.422 2.971-2.538 1.043-0.612 1.763-1.656 2.16-3.132 0.396 0.828 0.701 1.764 0.917 2.808 0.216 0.864 0.306 1.566 0.271 2.106-0.036 0.936 0.145 2.052 0.54 3.348l1.133 2.646c0.791 1.907 1.276 3.31 1.457 4.211z" clip-rule="evenodd" fill="#f90" fill-rule="evenodd"/>
	<g clip-rule="evenodd" fill="#E88B00" fill-rule="evenodd">
		<path d="m21.631 21.68c0.505 0.036 0.937 0.378 1.297 1.026l-0.271 0.594c-0.216 0.468-0.342 0.863-0.378 1.188l-0.216-0.325c-0.288-0.432-0.504-1.26-0.647-2.483h0.215z"/>
		<path d="m26.492 11.636c0.396 0.828 0.701 1.764 0.917 2.808 0.216 0.864 0.306 1.566 0.271 2.106-0.036 0.936 0.145 2.052 0.54 3.348l1.133 2.646c0.793 1.908 1.278 3.312 1.459 4.212 0.288 1.439 0.54 3.708 0.755 6.804 0.037 0.359 0.288 1.08 0.757 2.16-0.432 0.433-1.08 0.882-1.944 1.35-1.691 0.973-3.546 1.566-5.562 1.782l-4.319 0.378c0.647-0.288 1.151-0.685 1.512-1.188 0.323-0.577 0.594-0.99 0.81-1.242 0.828-0.936 1.242-2.448 1.242-4.536 0-0.576-0.126-1.512-0.378-2.808-0.253-1.44-0.54-2.664-0.864-3.673 0.576 0.577 0.99 1.099 1.242 1.566 0.792 1.477 1.206 2.25 1.241 2.322 0.505 1.116 0.792 2.214 0.864 3.294 0.108 1.116 0.343 1.781 0.702 1.997 0.181 0.109 0.558 0.109 1.134 0 0.324-0.071 0.612-0.342 0.864-0.81 0.108-0.18 0.396-0.828 0.864-1.943 0.324-0.685 0.306-1.386-0.055-2.106-0.18-0.288-0.594-0.773-1.241-1.458-0.288-0.359-0.846-0.702-1.674-1.025l-1.026-0.433c1.404-0.972 2.143-1.854 2.214-2.646 0.036-0.396-0.09-0.828-0.378-1.296-0.36-0.576-0.595-1.188-0.702-1.836-0.54-3.096-1.134-4.896-1.782-5.4-0.359-0.288-0.936-0.234-1.728 0.162-0.72 0.36-1.386 0.828-1.998 1.404v-0.27c0-0.576 0.99-1.422 2.971-2.538 1.042-0.611 1.762-1.655 2.159-3.131z"/>
	</g>
	<path d="m24.062 13.148c-0.037 0.036-0.45 0.342-1.242 0.918-0.9 0.72-2.448 0.864-4.644 0.432-1.044-0.18-2.358-0.486-3.942-0.918-1.872-0.504-3.042-0.918-3.51-1.242-0.216-0.108-0.36-0.234-0.432-0.378 0.396-0.18 1.242-0.36 2.538-0.54l1.296-0.216c0.72 0.144 1.35 0.198 1.89 0.162 0.504 0 1.17-0.342 1.998-1.026s1.53-1.062 2.105-1.134c0.9-0.108 1.746 0 2.538 0.324 0.864 0.324 1.332 0.756 1.404 1.296 0.072 0.756-1.026 0.666-3.294-0.27l0.972 0.648c0.72 0.504 1.332 0.882 1.836 1.134 0.54 0.252 0.702 0.522 0.487 0.81z" clip-rule="evenodd" fill="#FFB411" fill-rule="evenodd"/>
	<g clip-rule="evenodd" fill="#F09400" fill-rule="evenodd">
		<path d="m23.575 12.338c0.54 0.252 0.702 0.522 0.486 0.81-0.037 0.036-0.45 0.342-1.242 0.918-0.9 0.72-2.448 0.864-4.644 0.432-1.044-0.18-2.358-0.486-3.942-0.918-1.872-0.504-3.042-0.918-3.51-1.242-0.216-0.108-0.36-0.234-0.432-0.378 0.396-0.18 1.242-0.36 2.538-0.54l1.08-0.162c-0.252 0.324-0.468 0.54-0.648 0.648-0.324 0.18-0.198 0.36 0.378 0.54 0.144 0.036 1.062 0.251 2.754 0.647 0.396 0.108 1.404 0.378 3.024 0.81 0.863 0.216 1.386 0.307 1.565 0.27 0.252-0.107 0.486-0.342 0.702-0.702 0.252-0.432 0.271-0.774 0.054-1.026-0.216-0.252-0.756-0.648-1.62-1.188l-1.188-0.702 1.998 0.108c0.937 0.721 1.819 1.279 2.647 1.675z"/>
		<path d="m21.416 9.854c-0.937-0.18-1.854-0.18-2.755 0 0.504-0.396 0.99-0.612 1.458-0.647 0.9-0.108 1.746 0 2.538 0.324 0.864 0.324 1.332 0.756 1.404 1.296 0 0.108-0.037 0.198-0.108 0.27-0.468-0.541-1.313-0.954-2.537-1.243z"/>
	</g>
	<path d="m16.609 14.66c1.116 0.432 1.729 0.774 1.836 1.026 0.145 0.288-0.09 0.342-0.702 0.162-1.764-0.396-2.736-0.738-2.916-1.026-0.18-0.215-0.09-0.359 0.27-0.432 0.361-0.036 0.864 0.054 1.512 0.27z" clip-rule="evenodd" fill="#fff" fill-rule="evenodd"/>
	<path d="m27.463 23.624c0.396-0.072 0.612 0.126 0.648 0.594 0.036 0.54-0.233 1.134-0.81 1.782-0.828 0.972-1.548 1.403-2.16 1.296 0-0.756 0.271-1.458 0.811-2.106 0.143-0.18 0.431-0.54 0.863-1.08 0.216-0.288 0.432-0.45 0.648-0.486z" clip-rule="evenodd" fill="#FFB536" fill-rule="evenodd"/>
	<path d="m28.003 33.02c0.181-0.288 0.36-0.665 0.54-1.134 0.181-0.611 0.342-1.044 0.486-1.296 0.181-0.396 0.378-0.522 0.594-0.378 0.145 0.107 0.27 0.359 0.379 0.755-0.252 1.62-0.667 2.791-1.243 3.511-0.359 0.468-0.773 0.702-1.242 0.702-0.396-0.036-0.647-0.163-0.755-0.378-0.073-0.145 0.036-0.396 0.324-0.756 0.431-0.433 0.738-0.775 0.917-1.026z" clip-rule="evenodd" fill="#FFB536" fill-rule="evenodd"/>
		<radialGradient id="n" cx="18.199" cy="10.449" r=".801" gradientTransform="matrix(1.08 0 0 -1.08 3.6504 31.02)" gradientUnits="userSpaceOnUse">
		<stop stop-color="#FFE03A" offset="0"/>
		<stop stop-color="#f80" offset="1"/>
	</radialGradient>
	<path d="m24.169 19.736c0 0.575-0.287 0.863-0.863 0.863s-0.864-0.288-0.864-0.863c0-0.577 0.288-0.865 0.864-0.865s0.863 0.289 0.863 0.865z" clip-rule="evenodd" fill="url(#n)" fill-rule="evenodd"/>
		<radialGradient id="o" cx="18.8" cy="12.2" r=".5125" gradientTransform="matrix(1.08 0 0 -1.08 3.6504 34.802)" gradientUnits="userSpaceOnUse">
		<stop stop-color="#FFE03A" offset="0"/>
		<stop stop-color="#f80" offset="1"/>
	</radialGradient>
	<path d="m24.493 21.626c0 0.359-0.18 0.54-0.54 0.54-0.396 0-0.594-0.181-0.594-0.54 0-0.396 0.198-0.594 0.594-0.594 0.36 0 0.54 0.198 0.54 0.594z" clip-rule="evenodd" fill="url(#o)" fill-rule="evenodd"/>
		<radialGradient id="p" cx="9.5498" cy="8.3496" r=".7998" gradientTransform="matrix(1.08 0 0 -1.08 3.6504 26.485)" gradientUnits="userSpaceOnUse">
		<stop stop-color="#FFE03A" offset="0"/>
		<stop stop-color="#f80" offset="1"/>
	</radialGradient>
	<path d="m14.828 17.468c0 0.576-0.288 0.864-0.864 0.864s-0.864-0.288-0.864-0.864 0.288-0.864 0.864-0.864 0.864 0.288 0.864 0.864z" clip-rule="evenodd" fill="url(#p)" fill-rule="evenodd"/>
		<radialGradient id="q" cx="11.2" cy="10.95" r=".4375" gradientTransform="matrix(1.08 0 0 -1.08 3.6504 32.102)" gradientUnits="userSpaceOnUse">
		<stop stop-color="#FFE03A" offset="0"/>
		<stop stop-color="#f80" offset="1"/>
	</radialGradient>
	<path d="m16.231 20.276c0 0.323-0.162 0.485-0.486 0.485-0.288 0-0.432-0.162-0.432-0.485 0-0.325 0.144-0.486 0.432-0.486 0.324 0 0.486 0.162 0.486 0.486z" clip-rule="evenodd" fill="url(#q)" fill-rule="evenodd"/>
		<radialGradient id="r" cx="8.7495" cy="16.8" r=".4877" gradientTransform="matrix(1.08 0 0 -1.08 3.6504 44.737)" gradientUnits="userSpaceOnUse">
		<stop stop-color="#FFE03A" offset="0"/>
		<stop stop-color="#f80" offset="1"/>
	</radialGradient>
	<path d="m13.64 26.594c0 0.36-0.18 0.54-0.54 0.54s-0.54-0.18-0.54-0.54 0.18-0.54 0.54-0.54 0.54 0.179 0.54 0.54z" clip-rule="evenodd" fill="url(#r)" fill-rule="evenodd"/>
		<radialGradient id="s" cx="15.15" cy="19" r=".8" gradientTransform="matrix(1.08 0 0 -1.08 3.6504 49.489)" gradientUnits="userSpaceOnUse">
		<stop stop-color="#FFE03A" offset="0"/>
		<stop stop-color="#f80" offset="1"/>
	</radialGradient>
	<path d="m20.93 28.97c0 0.252-0.091 0.468-0.271 0.648s-0.396 0.27-0.647 0.27c-0.216 0-0.414-0.09-0.594-0.27-0.181-0.181-0.271-0.396-0.271-0.648 0-0.216 0.09-0.414 0.271-0.594 0.18-0.181 0.378-0.271 0.594-0.271 0.252 0 0.468 0.09 0.647 0.271 0.18 0.18 0.271 0.378 0.271 0.594z" clip-rule="evenodd" fill="url(#s)" fill-rule="evenodd"/>
	<path d="m24.062 14.012c-0.612 0.216-0.81 0.216-0.595 0 0.396-0.359-0.036-0.846-1.296-1.458-0.504-0.215-1.188-0.611-2.052-1.188l-1.188-0.81 2.16 0.108c0.647 0.072 1.674 0.306 3.077 0.702l0.864 0.972c0.071 0.215 0.036 0.558-0.107 1.025 1e-3 0.253-0.287 0.469-0.863 0.649z" clip-rule="evenodd" fill="#FFE03A" fill-rule="evenodd"/>
	<path d="m21.47 11.366c0.684 0.288 1.224 0.684 1.62 1.188 0.432 0.577 0.45 0.738 0.054 0.486-1.728-0.72-2.7-1.242-2.916-1.566-0.144-0.216-0.09-0.342 0.162-0.378 0.252 0 0.612 0.09 1.08 0.27z" clip-rule="evenodd" fill="#fff" fill-rule="evenodd"/>
	<path d="m14.018 14.012c0.324 0 0.432 0.126 0.324 0.378s-0.252 0.36-0.432 0.324c-0.216-0.036-0.342-0.162-0.378-0.377-0.036-0.217 0.126-0.325 0.486-0.325z" clip-rule="evenodd" fill="#fff" fill-rule="evenodd"/>
	<path d="m19.472 16.496c-0.108-0.289-0.072-0.432 0.107-0.432 0.145 0 0.414 0.018 0.811 0.054 0.468 0 1.368-0.378 2.7-1.134l-1.134 0.81c-0.54 0.324-0.919 0.558-1.135 0.702-0.359 0.251-0.54 0.504-0.54 0.756l0.162 3.941c0 0.792-0.145-0.288-0.432-3.24 0.035-0.359-0.054-0.702-0.271-1.025l-0.268-0.432z" clip-rule="evenodd" fill="#fff" fill-rule="evenodd"/>
	<path d="m22.171 35.396c0.396-0.433 0.54-0.379 0.433 0.161s-0.288 0.937-0.54 1.189c-0.145 0.143-0.433 0.485-0.864 1.025-0.432 0.432-0.756 0.666-0.972 0.702-0.252 0.035-0.432-0.036-0.54-0.217-0.108-0.215 0-0.359 0.324-0.432 0.252-0.071 0.594-0.396 1.025-0.972 0.612-0.827 0.99-1.313 1.134-1.456z" clip-rule="evenodd" fill="#fff" fill-rule="evenodd"/>
	<path d="m18.283 38.149c0.216-0.036 0.324 0.09 0.324 0.378 0 0.252-0.234 0.378-0.702 0.378s-0.612-0.126-0.433-0.378c0.182-0.215 0.452-0.341 0.811-0.378z" clip-rule="evenodd" fill="#fff" fill-rule="evenodd"/>
		<linearGradient id="t" x1="5.2432" x2="16.944" y1="-10.904" y2="-10.904" gradientTransform="matrix(-.1731 1.066 -1.066 -.1731 3.6499 8.4505)" gradientUnits="userSpaceOnUse">
		<stop stop-color="#FFE03A" offset="0"/>
		<stop stop-color="#f80" stop-opacity="0" offset="1"/>
	</linearGradient>
	<path d="m18.661 17.576l0.271 1.35c0.18 0.936 0.252 1.601 0.216 1.998-0.036 0.612 0.126 1.926 0.485 3.942-0.251 0.863-0.953 1.583-2.105 2.16-1.44 0.503-2.502 0.899-3.187 1.188-1.151 0.468-1.565 0.953-1.242 1.458 0.756 1.224 1.26 2.484 1.512 3.78 0.36 1.835-0.215 2.682-1.728 2.537-2.375-0.216-5.04-1.242-7.992-3.077l1.296-5.671c0.396-2.231 0.684-3.581 0.864-4.05 0.252-0.792 0.738-1.817 1.458-3.078 0.936-1.655 1.476-2.645 1.62-2.97 0.108-0.684 0.288-1.403 0.54-2.16 0.18-0.468 0.792-0.521 1.836-0.162 0.612 0.216 1.583 0.648 2.916 1.296 1.225 0.505 2.305 0.991 3.24 1.459z" clip-rule="evenodd" fill="url(#t)" fill-rule="evenodd"/>
		<use transform="matrix(1.08 0 0 -1.08 4.75 27.7)" y="-8.751" width="15.166" height="8.751" enable-background="new" opacity=".5586" xlink:href="#u"/>
</svg>