<?xml version='1.0' encoding='utf-8'?>
<svg xmlns="http://www.w3.org/2000/svg" xmlns:xlink="http://www.w3.org/1999/xlink" enable-background="new 0 0 44.05 41" version="1.1" viewBox="0 0 44.05 41">
<symbol id="n" viewBox="0 -15.8 28.95 15.8">
		<path d="m26.5-3c0.433 0.633 1.25 1.633 2.45 3-0.333-0.567-0.617-0.967-0.85-1.2-0.033-0.033-0.6-0.783-1.7-2.25-0.3-0.367-0.55-0.7-0.75-1-0.4-0.5-0.633-0.867-0.7-1.1-0.133-0.367-0.467-1.067-1-2.1l-0.3-1c-0.1-0.4-0.35-0.967-0.75-1.7-0.433-0.8-0.733-1.333-0.9-1.6-0.3-0.533-0.967-1.167-2-1.9h-0.8c-2.633-0.433-4.383-0.717-5.25-0.85l-5.95-0.65c-0.8-0.167-1.5-0.25-2.1-0.25-1.1-0.133-1.917-0.2-2.45-0.2-0.567 0-1.717 0.333-3.45 1 0.567 0.066 1.033 0.2 1.4 0.4 0.2 0.1 0.4 0.3 0.6 0.6 0.333 0.5 0.633 0.9 0.9 1.2 0.6 0.733 1.267 1.8 2 3.2l-0.55-2.1c-0.2-0.733-0.35-1.433-0.45-2.1l-0.3-1.65c1.6 0 2.65 0.1 3.15 0.3 0.467 0.167 2.017 0.317 4.65 0.45 0.167 0.033 0.617 0.1 1.35 0.2 0.567 0.1 1.067 0.216 1.5 0.35 1.167 0.367 2.067 0.583 2.7 0.65l1.4 0.05c0.433 0.033 0.733 0.1 0.9 0.2 0.3 0.2 1.1 0.816 2.4 1.85 0.367 0.267 0.633 0.55 0.8 0.85 0.066 0.167 0.167 0.434 0.3 0.8 0 0.033 0.217 0.617 0.65 1.75 0.367 1.033 0.667 1.733 0.9 2.1 0.367 0.6 1.1 1.5 2.2 2.7z" clip-rule="evenodd" fill="#fff" fill-rule="evenodd"/>
</symbol>
<symbol id="o" viewBox="0 -20.05 40.75 20.067">
		<path d="m23.75-19.05c-1.433-0.267-3.15-0.5-5.15-0.7-1.733-0.2-2.85-0.3-3.35-0.3-0.367 0-1.05 0.167-2.05 0.5l-1.4 0.5-6.15-0.3-5.65 5.2c0.733 1.1 1.15 1.933 1.25 2.5l0.4 6c1 0.733 2.367 1.283 4.1 1.65 1.1 0.233 2.35 0.65 3.75 1.25 0.767 0.333 1.767 0.8 3 1.4 1.233 0.5 4.117 0.95 8.65 1.35 0.7 0.067 1.783-0.067 3.25-0.4 0.833-0.167 2.217-0.483 4.15-0.95 3.034-0.733 4.9-1.1 5.6-1.1l6.6-1.8c-1.567-2.2-2.7-3.717-3.4-4.55-0.434-0.5-0.883-1.284-1.35-2.35-0.233-0.6-0.617-1.55-1.15-2.85-0.4-0.967-1.017-1.883-1.85-2.75-0.833-0.9-1.5-1.35-2-1.35-1.2 0-3.617-0.317-7.25-0.95z" clip-rule="evenodd" fill="#545454" fill-rule="evenodd"/>
</symbol>
<symbol id="p" viewBox="0 -13.75 8.328 13.75">
		<path d="m8.05-2.85l0.2-0.4c0.167-0.867 0.067-1.667-0.3-2.4s-0.667-1.7-0.9-2.9l-0.4-1.75c-0.1-0.5-0.15-0.967-0.15-1.4l-0.2-0.75c-0.2-0.533-0.433-0.966-0.7-1.3l-5.6 5.2c0.733 1.1 1.15 1.933 1.25 2.5 0.1 0.533 0.183 1.817 0.25 3.85l0.15 2.15 0.05 0.05c1.167-0.467 2.083-0.883 2.75-1.25 1-0.567 2.2-1.1 3.6-1.6z" clip-rule="evenodd" fill="#fff" fill-rule="evenodd"/>
</symbol>
<symbol id="q" viewBox="0 -8.5 39.05 8.517">
		<path d="m32.45-2.45c0.233 0 1.4-0.3 3.5-0.9 1.066-0.3 2.1-0.6 3.1-0.9-0.3-0.1-1.3-0.1-3 0-2 0.1-3.216 0.15-3.65 0.15-0.733-0.033-1.017-0.117-0.85-0.25 0.067-0.067 0.217-0.117 0.45-0.15-0.833 0.067-1.683 0.1-2.55 0.1-0.534 0-0.934-0.05-1.2-0.15-0.3-0.167-0.567-0.3-0.8-0.4-1.2-0.4-1.934-0.633-2.2-0.7-1.367-0.333-2.8-0.517-4.3-0.55h-5.15c-0.767-0.2-1.55-0.4-2.35-0.6-1.6-0.467-2.45-0.817-2.55-1.05-0.2-0.367-1.633-0.583-4.3-0.65-1.1 0.3-2.383 0.85-3.85 1.65-0.667 0.367-1.583 0.783-2.75 1.25 0.833 0.667 2.183 1.2 4.05 1.6 1.1 0.233 2.35 0.65 3.75 1.25 0.767 0.333 1.767 0.8 3 1.4 1.233 0.5 4.117 0.95 8.65 1.35 0.7 0.067 1.783-0.067 3.25-0.4 0.833-0.167 2.216-0.483 4.15-0.95 3.033-0.733 4.9-1.1 5.6-1.1z" clip-rule="evenodd" fill="#fff" fill-rule="evenodd"/>
</symbol>
<symbol id="r" viewBox="0 -14.15 13.7 14.15">
		<path d="m10.6-2.3c1.066-0.3 2.1-0.6 3.1-0.9l-2.6-3.55c-0.933-0.667-1.433-1.05-1.5-1.15-0.467-0.967-0.9-1.833-1.3-2.6-0.8-1.5-1.533-2.5-2.2-3l-0.9-0.65c-0.8 0-1.5 0.033-2.1 0.1-0.233 0-0.667 0.133-1.3 0.4-0.767 0.3-1.367 0.5-1.8 0.6 1.133 0.933 1.767 1.517 1.9 1.75 0.3 0.466 0.45 1.633 0.45 3.5 0 0.7-0.033 1.283-0.1 1.75-0.1 0.533-0.183 1.067-0.25 1.6-0.1 0.9-0.7 2.383-1.8 4.45l1.3-0.3c3.033-0.733 4.9-1.1 5.6-1.1 0.233 0 1.4-0.3 3.5-0.9z" clip-rule="evenodd" fill-rule="evenodd"/>
</symbol>
<symbol id="s" viewBox="0 -20.05 40.75 20.067">
			<radialGradient id="k" cx="-3365.2" cy="-7913.5" r="16.117" gradientTransform="matrix(.7221 -.6918 -.6918 -.7221 -3025.8 -8046.9)" gradientUnits="userSpaceOnUse">
			<stop stop-color="#fff" stop-opacity="0" offset=".0039"/>
			<stop stop-color="#fff" stop-opacity=".949" offset="1"/>
		</radialGradient>
		<path d="m23.75-19.05c-1.433-0.267-3.15-0.5-5.15-0.7-1.733-0.2-2.85-0.3-3.35-0.3-0.367 0-1.05 0.167-2.05 0.5l-1.4 0.5-6.15-0.3-5.65 5.2c0.733 1.1 1.15 1.933 1.25 2.5l0.4 6c1 0.733 2.367 1.283 4.1 1.65 1.1 0.233 2.35 0.65 3.75 1.25 0.767 0.333 1.767 0.8 3 1.4 1.233 0.5 4.117 0.95 8.65 1.35 0.7 0.067 1.783-0.067 3.25-0.4 0.833-0.167 2.217-0.483 4.15-0.95 3.034-0.733 4.9-1.1 5.6-1.1l6.6-1.8c-1.567-2.2-2.7-3.717-3.4-4.55-0.434-0.5-0.883-1.284-1.35-2.35-0.233-0.6-0.617-1.55-1.15-2.85-0.4-0.967-1.017-1.883-1.85-2.75-0.833-0.9-1.5-1.35-2-1.35-1.2 0-3.617-0.317-7.25-0.95z" clip-rule="evenodd" fill="url(#k)" fill-rule="evenodd"/>
</symbol>
<symbol id="t" viewBox="0 -6.35 32.25 6.361">
		<path d="m31.25-2.75c-0.133-0.2-0.217-0.533-0.25-1v-0.65c-1.2 0-3.617-0.317-7.25-0.95-1.433-0.267-3.15-0.5-5.15-0.7-1.733-0.2-2.85-0.3-3.35-0.3-0.367 0-1.05 0.167-2.05 0.5l-1.4 0.5-6.15-0.3-5.65 5.2 0.1 0.15c2.066-0.367 3.3-0.55 3.7-0.55 0.8 0 2.3 0.117 4.5 0.35 1.767 0.5 3.5 0.633 5.2 0.4 2.333-0.367 4.95-0.55 7.85-0.55 1 0 2.433 0.117 4.3 0.35 0.767 0.033 1.65-0.133 2.65-0.5 1.133-0.4 1.75-0.6 1.85-0.6 0.6-0.067 1.3-0.1 2.1-0.1-0.5-0.533-0.833-0.95-1-1.25z" clip-rule="evenodd" fill-rule="evenodd"/>
</symbol>
		<use transform="matrix(1.08 0 0 -1.08 0 19.35)" y="-20.05" width="40.75" height="20.067" enable-background="new" opacity=".3906" xlink:href="#o"/>
		<radialGradient id="l" cx="22.6" cy="7.1499" r="16.05" gradientTransform="matrix(1.08 0 0 -.7747 .00039673 32.61)" gradientUnits="userSpaceOnUse">
		<stop stop-color="#59ECFF" offset="0"/>
		<stop stop-color="#fff" stop-opacity=".4" offset="1"/>
	</radialGradient>
	<path d="m25.649 39.924c-1.548 0.288-3.402 0.539-5.562 0.756-1.872 0.216-3.078 0.323-3.618 0.323-0.396 0-1.134-0.18-2.214-0.54l-1.512-0.539-6.642 0.324-6.101-5.616c0.792-1.188 1.242-2.088 1.35-2.7l0.432-6.479c1.08-0.792 2.556-1.386 4.428-1.782 1.188-0.252 2.538-0.702 4.05-1.35 0.828-0.36 1.908-0.864 3.24-1.512 1.332-0.54 4.446-1.026 9.341-1.458 0.757-0.072 1.927 0.072 3.511 0.432 0.899 0.181 2.394 0.522 4.481 1.026 3.275 0.792 5.292 1.188 6.049 1.188l7.127 1.944c-1.691 2.376-2.916 4.014-3.672 4.913-0.468 0.54-0.954 1.387-1.458 2.538-0.252 0.648-0.665 1.675-1.242 3.078-0.432 1.044-1.098 2.034-1.998 2.97-0.899 0.972-1.619 1.458-2.159 1.458-1.297-1e-3 -3.907 0.341-7.831 1.026z" clip-rule="evenodd" fill="url(#l)" fill-rule="evenodd"/>
		<radialGradient id="m" cx="9.2529" cy="8.7036" r="15.364" gradientTransform="matrix(1.0403 -.2899 -.1942 -.6968 4.2132 34.469)" gradientUnits="userSpaceOnUse">
		<stop stop-color="#FFAF8C" offset="0"/>
		<stop stop-color="#fff" stop-opacity="0" offset="1"/>
	</radialGradient>
	<path d="m25.649 39.924c-1.548 0.288-3.402 0.539-5.562 0.756-1.872 0.216-3.078 0.323-3.618 0.323-0.396 0-1.134-0.18-2.214-0.54l-1.512-0.539-6.642 0.324-6.101-5.616c0.792-1.188 1.242-2.088 1.35-2.7l0.432-6.479c1.08-0.792 2.556-1.386 4.428-1.782 1.188-0.252 2.538-0.702 4.05-1.35 0.828-0.36 1.908-0.864 3.24-1.512 1.332-0.54 4.446-1.026 9.341-1.458 0.757-0.072 1.927 0.072 3.511 0.432 0.899 0.181 2.394 0.522 4.481 1.026 3.275 0.792 5.292 1.188 6.049 1.188l7.127 1.944c-1.691 2.376-2.916 4.014-3.672 4.913-0.468 0.54-0.954 1.387-1.458 2.538-0.252 0.648-0.665 1.675-1.242 3.078-0.432 1.044-1.098 2.034-1.998 2.97-0.899 0.972-1.619 1.458-2.159 1.458-1.297-1e-3 -3.907 0.341-7.831 1.026z" clip-rule="evenodd" fill="url(#m)" fill-rule="evenodd"/>
		<use transform="matrix(1.08 0 0 -1.08 0 34.15)" y="-6.35" width="32.25" height="6.361" enable-background="new" opacity=".1289" xlink:href="#t"/>
		<use transform="matrix(1.08 0 0 -1.08 0 19.35)" y="-20.05" width="40.75" height="20.067" enable-background="new" opacity=".5508" xlink:href="#s"/>
		<use transform="matrix(1.08 0 0 -1.08 29.25 20.45)" y="-14.15" width="13.7" height="14.15" enable-background="new" opacity=".0313" xlink:href="#r"/>
		<use transform="matrix(1.08 0 0 -1.08 1.8999 19.35)" y="-8.5" width="39.05" height="8.517" enable-background="new" opacity=".4414" xlink:href="#q"/>
		<use transform="matrix(1.08 0 0 -1.08 0 25.4)" y="-13.75" width="8.328" height="13.75" enable-background="new" opacity=".5313" xlink:href="#p"/>
	<path d="m3.024 31.823l1.674 0.648 1.512 0.055c1.512-0.648 2.268-1.278 2.268-1.891 0-0.396-0.055-0.81-0.162-1.242l-0.216-0.539-2.322-1.35c-0.18-0.107-0.54-0.216-1.08-0.324-0.612-0.107-1.008-0.197-1.188-0.27-0.288-0.145-0.648-0.433-1.08-0.864l-0.594-0.647c1.26 0.504 2.25 0.953 2.97 1.35 1.08 0.611 2.375 1.188 3.887 1.728l0.216 0.433c0.18 0.936 0.072 1.8-0.324 2.592s-0.72 1.836-0.972 3.132l-0.432 1.89c-0.108 0.54-0.162 1.044-0.162 1.512l-0.216 0.811c-0.216 0.576-0.468 1.044-0.756 1.404l-6.047-5.619c1.188 1.008 2.088 1.674 2.7 1.998 0.288 0.144 0.666 0.414 1.134 0.81 0.433 0.324 0.756 0.522 0.973 0.594 0.755 0.217 1.188 0.181 1.295-0.107 0.432-0.612 0.648-1.152 0.648-1.62l-0.054-1.674-2.106-1.352-1.566-1.458z" clip-rule="evenodd" fill="#fff" fill-rule="evenodd"/>
	<path d="m38.879 23.184l2.053 0.486c-0.181-0.288-1.099-0.737-2.755-1.35 1.368 0.323 3.313 0.863 5.832 1.62-0.324 0.107-1.403 0.107-3.24 0-2.159-0.108-3.474-0.162-3.942-0.162-0.792 0.035-1.098 0.126-0.917 0.27 0.071 0.072 0.234 0.126 0.486 0.162-0.901-0.072-1.818-0.108-2.754-0.108-0.577 0-1.009 0.055-1.296 0.162-0.324 0.181-0.612 0.324-0.864 0.433-1.296 0.432-2.088 0.684-2.376 0.756-1.477 0.359-3.023 0.558-4.644 0.594h-5.563c-0.828 0.216-1.674 0.432-2.538 0.647-1.728 0.505-2.646 0.883-2.753 1.135-0.216 0.396-1.764 0.63-4.645 0.702l-0.27-0.055 2.43-0.432 1.62-0.594 1.404-0.864c0.359-0.18 1.458-0.521 3.293-1.026-0.359-0.54-0.72-0.899-1.08-1.08-1.295-0.863-1.998-1.313-2.105-1.35l0.486 0.162c1.224 0.468 2.034 0.864 2.43 1.188 0.396 0.288 0.846 0.486 1.35 0.595 0.252 0.071 0.522 0.107 0.81 0.107 0.324 0.108 1.368 0.162 3.131 0.162 0.577 0 1.549 0.036 2.916 0.108 1.225 0 2.232-0.108 3.024-0.324 0.863-0.252 1.836-0.648 2.916-1.188 0.181-0.072 0.125-0.324-0.162-0.757-0.324-0.396-0.612-0.63-0.864-0.702-1.728-0.539-2.988-1.007-3.78-1.403-0.792-0.432-1.386-0.756-1.781-0.972-0.648-0.36-1.188-0.54-1.62-0.54h-1.025l1.295-0.108c1.117 0.072 2.322 0.414 3.618 1.026 0.936 0.468 1.891 0.972 2.862 1.512 0.503 0.252 0.9 0.414 1.188 0.485 0.54 0.072 1.404 0.288 2.593 0.648l1.943 0.217c0.072 0 0.594-0.037 1.566-0.108 0.972-0.072 1.547-0.091 1.728-0.054z" clip-rule="evenodd" fill="#fff" fill-rule="evenodd"/>
		<use transform="matrix(1.08 0 0 -1.08 12.8 23.95)" y="-15.8" width="28.95" height="15.8" enable-background="new" opacity=".4297" xlink:href="#n"/>
	<path d="m16.848 36.63c-0.144 0.252-0.324 0.684-0.54 1.296-0.108 0.324-0.288 0.63-0.54 0.918-0.108 0.144-0.252 0.359-0.432 0.647-0.181 0.217-0.342 0.324-0.486 0.324h-1.512l1.35-0.702c0.36-0.684 0.63-1.098 0.81-1.242 0.432-0.755 0.72-1.224 0.864-1.403l1.512-2.214-1.026 2.376z" clip-rule="evenodd" fill="#fff" fill-rule="evenodd"/>
</svg>